<svg width="383" height="560" viewBox="0 0 383 560" fill="none" xmlns="http://www.w3.org/2000/svg">
<path fill-rule="evenodd" clip-rule="evenodd" d="M105.567 305.23C108.866 292.883 111.9 287.648 117.761 283.357C123.243 279.343 131.246 275.971 142.922 273.509C155.084 271.457 155.429 265.358 158.478 255.556C159.368 252.609 163.776 251.825 165.679 253.949C165.947 253.669 166.227 253.413 166.516 253.182C166.257 251.777 168.378 247.749 168.307 246.404C167.567 232.372 172.324 225.326 184.197 222.706C186.779 222.137 204.317 221.801 206.834 222.473C217.84 225.409 228.674 234.731 227.016 245.96C230.471 250.316 233.852 252.975 239.182 254.379C247.482 255.396 243.313 368.857 228.897 436.832C222.712 465.998 74.8199 416.357 81.5027 401.75C80.5554 399.072 82.2821 396.13 81.5027 393.365C80.9387 391.364 79.4943 390.536 78.7672 388.555C77.7442 385.767 78.8568 382.026 80.0087 379.181C80.4807 377.763 79.1398 376.237 78.7672 374.79C76.9999 367.965 81.0469 368.567 83.9644 364.004C83.921 363.99 83.1623 360.733 83.1657 360.749C82.719 358.424 83.8381 355.444 84.8143 353.503C85.474 352.191 86.8874 351.37 88.2916 351.521C86.8774 346.889 85.0889 343.034 83.1657 338.571C79.7643 330.704 76.5297 322.474 71.6455 315.354C69.6453 312.438 71.2608 309.756 74.4976 309.557C84.9742 308.915 95.3362 307.46 105.567 305.23Z" fill="#8FA7DF"/>
<path fill-rule="evenodd" clip-rule="evenodd" d="M121.922 306.184L145.837 345.237C145.837 345.237 140.164 345.784 137.868 346.848C135.572 347.912 125.03 360.844 125.03 360.844L123.355 367.965L127.324 373.706L125.776 377.311C125.776 377.311 124.672 374.869 121.922 372.973C119.173 371.077 113.109 367.965 113.109 367.965C113.109 367.965 115.124 366.925 115.124 365.704C115.124 364.482 116.899 359.273 113.109 357.305C109.319 355.337 89.7352 350.731 89.7352 350.731L69.8874 310.332L121.922 306.184Z" fill="#EC7495"/>
<path fill-rule="evenodd" clip-rule="evenodd" d="M228.605 254.644L152.668 267.504L117.761 283.357L112.063 287.593L145.837 345.238L197.986 354.419L211.272 387.719L208.56 425.255L123.724 415.495L87.1292 411.299L78.5268 444.81L80.0809 458.596L82.3412 465.587L173.061 489.221C173.061 489.221 219.257 484.9 227.446 484.9C235.635 484.9 295.676 490.654 295.676 490.654L309.567 489.221C309.567 489.221 340.303 457.963 345.07 446.838C349.837 435.713 360.145 368.087 360.145 368.087L359.01 357.696L332.455 291.754C332.455 291.754 328.909 288.647 324.439 283.357C319.968 278.066 228.605 254.644 228.605 254.644Z" fill="#8FA7DF"/>
<path fill-rule="evenodd" clip-rule="evenodd" d="M91.167 349.898C98.0296 350.234 104.9 351.809 111.108 354.661C113.647 355.83 115.949 357.518 116.623 360.294C116.963 361.712 116.88 363.177 116.699 364.609C116.562 365.693 116.528 367.078 115.551 367.812C115.385 367.936 115.207 368.031 115.021 368.101C117.311 369.098 119.492 370.296 121.43 371.531C123.201 372.66 125.022 374.398 125.84 376.36C125.908 376.137 125.976 375.929 126.044 375.732C127.437 371.758 129.583 368.503 132.963 366.314C133.347 364.965 137.467 359.155 141.293 359.374C145.483 359.611 148.854 359.907 152.643 361.766C154.024 361.737 155.402 361.755 156.765 361.814C156.999 361.821 156.988 362.128 156.765 362.154C155.659 362.289 154.554 362.439 153.449 362.614C150.822 363.02 148.203 363.534 145.64 364.174C142.566 364.941 139.387 365.712 136.514 367.052C130.942 369.657 127.494 376.466 128.202 382.391C128.319 383.363 128.709 386.3 130.106 385.997C131.286 385.741 131.756 383.363 132.168 382.482C133.274 380.145 135.265 378.618 137.653 377.584C140.458 376.367 143.46 375.545 146.367 374.589C148.013 374.044 149.66 373.5 151.31 372.959C152.998 372.401 154.603 371.629 156.401 372.02C157.488 372.258 157.613 373.507 157.003 374.223C156.076 375.315 154.698 375.637 153.362 376.086C151.598 376.678 149.838 377.27 148.078 377.861C145.356 378.775 142.506 379.545 139.853 380.663L139.936 380.846C140.152 380.787 140.405 380.996 140.363 381.251C139.966 383.615 139.413 386.347 140.027 388.715C140.511 390.592 142.219 392.671 144.436 392.119C144.088 391.812 143.959 391.282 144.194 390.793C145.073 388.981 156.579 381.829 157.605 384.485C157.639 384.579 157.534 384.649 157.45 384.634C156.575 384.459 155.111 385.898 154.411 386.355C153.4 387.012 152.374 387.655 151.375 388.331C150.281 389.069 149.213 389.844 148.172 390.643C147.355 391.272 146.738 391.925 145.799 392.244C146.291 392.47 146.681 392.89 146.847 393.427C147.271 394.826 148.089 396.013 149.508 396.631C150.996 397.273 152.673 396.868 154.24 397.025C156.375 397.233 158.237 398.212 159.793 399.612C163.06 402.555 164.699 407.743 169.267 409.134C171.996 409.964 175.025 409.441 177.788 409.065C180.873 408.645 183.878 408.313 186.986 408.751C189.961 409.171 192.773 410.165 195.491 411.377C198.039 412.513 200.855 413.8 203.115 415.494C203.58 414.11 204.05 412.74 204.406 411.326C205.246 407.984 205.7 404.579 205.81 401.145C205.912 397.876 205.723 394.592 205.432 391.337C205.287 389.712 205.06 388.093 204.916 386.468C204.879 386.059 204.803 385.62 204.746 385.182C200.711 382.884 196.472 381.124 192.198 379.312C192.187 379.308 192.175 379.301 192.164 379.297C192.032 379.239 191.903 379.184 191.77 379.129C191.774 379.122 191.778 379.115 191.786 379.107C191.297 378.819 190.957 378.435 190.752 378.004C184.594 374.062 179.446 368.682 175.608 362.406C173.999 359.776 172.451 357.047 170.346 354.742C168.105 352.283 165.444 350.822 162.151 350.062C158.302 349.171 154.335 348.638 150.39 348.334C148.237 348.17 145.83 347.914 143.482 347.926C141.847 347.936 140.246 348.071 138.777 348.462C136.601 349.04 135.329 350.636 133.963 352.25C132.657 353.8 131.358 355.352 130.14 356.967C128.985 358.497 127.895 360.079 126.949 361.737C126.381 362.731 125.855 363.754 125.412 364.809C125.257 365.182 125.052 365.606 124.958 365.993C124.863 366.384 125.037 366.797 124.583 366.797C126.457 366.822 127.702 371.331 125.84 371.225C123.221 371.078 121.905 368.049 122.418 365.361C123.333 360.566 128.276 354.774 129.254 353.547C131.416 350.837 133.645 347.301 137.104 346.04C137.154 346.022 137.207 346.004 137.256 345.989C136.249 345.069 135.454 343.966 134.693 342.844C133.91 341.69 132.975 340.367 132.717 338.997C132.555 338.125 133.679 337.628 134.212 338.391C134.988 339.505 135.363 340.915 135.942 342.139C136.533 343.381 137.252 344.554 137.82 345.807C139.186 345.401 140.662 345.215 142.165 345.153C140.269 342.676 137.029 337.898 136.639 337.284C134.845 334.442 133.137 331.513 131.506 328.579C129.742 325.401 128.232 322.092 126.544 318.877C125.586 317.054 124.621 315.217 123.557 313.449C123.19 312.842 122.796 312.236 122.35 311.684C122.263 311.575 122.153 311.484 122.051 311.381C121.933 311.319 121.812 311.25 121.744 311.213C121.131 310.874 120.915 310.085 120.484 309.584C119.795 308.777 118.985 308.682 117.947 308.671C115.737 308.649 113.519 308.733 111.312 308.791C108.068 308.879 104.828 309.003 101.588 309.167C100.607 309.218 99.6308 309.27 98.6504 309.328C93.9378 309.599 89.229 309.953 84.5316 310.388C80.3754 310.771 76.2192 311.396 72.0593 311.696C77.6917 324.609 83.9373 337.288 91.0084 349.526C91.08 349.65 91.1333 349.774 91.167 349.898ZM122.418 383.166C123.326 383.568 124.208 384.068 125.03 384.638C124.893 383.75 124.859 382.815 124.897 381.876C124.219 382.577 123.353 382.979 122.418 383.166ZM83.6382 360.952C83.7026 360.959 83.7632 360.992 83.7934 361.054C85.0501 363.556 84.5244 366.351 82.4724 368.313C81.3974 369.335 79.0544 370.49 79.1304 372.17C79.1948 373.529 80.7274 374.669 81.3823 375.79C81.9917 376.835 82.2188 377.982 81.7305 379.115C81.1059 380.565 79.361 381.142 78.7629 382.567C78.0059 384.375 79.2361 386.556 80.0991 388.13C80.9016 389.587 81.9391 391.045 82.6276 392.587C87.2418 394.892 97.7117 399.078 98.9725 399.312C100.509 399.6 102.049 399.874 103.594 400.13C106.558 400.627 109.529 401.087 112.508 401.492C114.204 401.723 115.903 401.949 117.603 402.128C119.087 402.282 120.76 402.49 121.956 401.412C124.367 399.235 123.016 395.586 121.49 393.387C121.46 393.343 121.46 393.303 121.471 393.266C120.033 392.941 118.598 392.561 117.168 392.294C114.416 391.783 111.645 391.352 108.87 390.969C103.17 390.183 97.4315 389.664 91.7011 389.142C90.2817 389.01 90.2665 386.855 91.7011 386.983C99.934 387.71 108.208 388.4 116.331 389.931C118.368 390.311 120.389 390.742 122.399 391.228C123.349 391.454 124.367 391.809 125.363 391.82C125.423 391.82 125.484 391.82 125.544 391.816C127.494 391.758 127.778 390.147 126.706 388.806C126.574 388.641 126.438 388.477 126.298 388.32C124.405 386.143 122.047 384.689 119.617 383.184C116.895 382.826 114.181 382.029 111.516 381.445C104.938 379.998 98.3589 378.552 91.7765 377.109C90.4861 376.824 91.0345 374.91 92.3253 375.191C97.3218 376.284 102.318 377.376 107.315 378.468L114.628 380.068C116.089 380.386 117.914 381.025 119.632 381.255C120.48 381.368 121.301 381.383 122.043 381.215C124.439 380.667 124.56 377.777 123.527 376.061C122.369 374.132 120.181 372.926 118.239 371.834C114.874 369.938 111.293 368.576 107.795 367.005C107.175 366.873 106.554 366.742 105.933 366.61C102.322 365.843 98.1962 365.467 94.7971 364.061C93.7788 363.644 94.3356 362.095 95.3421 362.117C97.9804 362.172 100.74 363.078 103.318 363.615C106.107 364.199 108.901 364.78 111.69 365.361C111.971 365.419 113.628 365.931 113.878 365.818C114.037 365.745 114.094 365.212 114.147 364.861C114.318 363.706 114.442 362.494 114.257 361.335C113.848 358.738 111.603 357.518 109.332 356.521C104.275 354.303 98.7299 352.916 93.211 352.36C91.9392 352.232 90.6674 352.152 89.388 352.112C87.8856 352.068 86.6475 351.812 85.8867 353.24C84.6905 355.491 84.0319 358.384 83.6382 360.952ZM90.6613 442.539C91.7632 438.861 91.4634 434.934 92.2182 431.183C92.6077 429.248 93.1395 427.328 93.7202 425.438C94.1888 423.912 94.9704 422.289 95.059 420.696C95.0643 420.59 94.9344 420.528 94.8451 420.577C93.2905 421.437 92.0967 423.294 91.2102 424.752C90.1488 426.496 89.3384 428.322 88.6847 430.243C87.3818 434.069 86.3121 438.683 87.9924 442.539C88.4924 443.687 90.2487 443.917 90.6613 442.539ZM133.664 470.381C135.306 469.275 136.503 467.729 137.895 466.364C139.265 465.023 137.124 462.956 135.754 464.298C134.566 465.462 133.535 466.916 132.136 467.857C131.463 468.31 131.152 469.128 131.593 469.856C131.983 470.499 132.993 470.832 133.664 470.381ZM142.822 427.879C139.824 426.629 136.876 425.266 133.739 424.366C131.864 423.827 131.07 426.648 132.934 427.183C135.823 428.013 138.533 429.251 141.293 430.402C143.065 431.142 144.606 428.623 142.822 427.879ZM174.477 427.004C175.21 425.259 172.28 424.507 171.557 426.227C170.726 428.208 169.773 430.138 168.941 432.119C168.209 433.864 171.139 434.617 171.861 432.896C172.693 430.915 173.646 428.985 174.477 427.004ZM205.722 461.86C206.211 462.489 207.025 462.829 207.794 462.385C208.438 462.012 208.831 461.022 208.337 460.386C206.894 458.529 205.432 456.695 203.74 455.04C202.369 453.698 200.228 455.766 201.599 457.106C203.109 458.584 204.433 460.202 205.722 461.86ZM210.19 266.284C208.8 267.2 207.582 268.313 206.395 269.458C205.014 270.79 207.156 272.856 208.537 271.524C209.537 270.559 210.546 269.579 211.718 268.807C212.396 268.361 212.7 267.53 212.262 266.808C211.869 266.161 210.866 265.839 210.19 266.284ZM164.733 313.311C165.519 314.829 166.226 316.318 166.271 318.044C166.319 319.924 169.347 319.925 169.299 318.044C169.241 315.785 168.378 313.827 167.348 311.836C166.476 310.151 163.865 311.633 164.733 313.311ZM148.055 275.542C146.427 274.494 144.912 277.027 146.526 278.065C147.834 278.907 149.142 279.749 150.451 280.59C152.078 281.637 153.592 279.105 151.979 278.067C150.671 277.225 149.363 276.383 148.055 275.542ZM220.396 341.578C220.674 343.435 223.591 342.64 223.316 340.801C222.89 337.958 222.37 335.153 221.571 332.384C221.048 330.572 218.128 331.347 218.651 333.161C219.451 335.93 219.97 338.735 220.396 341.578ZM231.013 375.053C232.962 375.014 232.962 372.091 231.013 372.131C229.249 372.167 227.515 372.615 225.813 373.025C223.921 373.481 224.728 376.299 226.619 375.843C228.057 375.496 229.521 375.084 231.013 375.053ZM234.932 442.487C235.602 442.802 236.289 443.085 236.965 443.384C238.321 443.982 239.676 444.58 241.03 445.181C243.851 446.431 246.671 447.685 249.489 448.943C255.129 451.463 260.812 453.893 266.466 456.385C272.231 458.927 277.981 461.502 283.724 464.091C286.43 465.31 289.156 466.484 291.877 467.671C294.203 468.687 297.079 470.461 299.633 470.627C299.764 470.636 299.808 470.476 299.733 470.394C298.768 469.335 297.229 468.719 295.961 468.031C294.666 467.327 293.346 466.665 292.033 465.994C289.294 464.594 286.553 463.205 283.788 461.855C278.258 459.154 272.717 456.473 267.175 453.795C261.523 451.063 255.878 448.314 250.177 445.68C247.492 444.439 244.805 443.202 242.116 441.97C240.66 441.302 239.202 440.635 237.745 439.97C237.116 439.682 236.493 439.372 235.849 439.115C234.994 438.773 234.344 438.843 233.462 438.633C232.024 438.29 231.401 440.055 232.505 440.824C233.415 441.457 233.893 441.998 234.932 442.487ZM255.148 472.453C255.458 471.724 254.808 470.838 254.09 470.655C253.23 470.437 252.541 470.941 252.227 471.676C251.397 473.625 250.215 475.413 248.693 476.923C247.332 478.272 249.473 480.34 250.834 478.989C252.741 477.097 254.112 474.884 255.148 472.453ZM270.02 425.545C271.401 424.213 269.259 422.147 267.879 423.479L263.954 427.266C262.574 428.598 264.716 430.664 266.096 429.332L270.02 425.545ZM310.283 419.37C313.105 420.169 316.396 420.903 318.319 423.226C318.413 423.339 318.571 423.194 318.515 423.08C316.052 418.153 308.99 416.425 304.1 414.699C300.641 413.478 297.093 412.465 293.514 411.561C293.872 407.621 292.885 403.399 292.543 399.478C292.177 395.293 291.879 391.096 291.726 386.897C291.569 382.614 291.532 378.302 291.678 374.018C291.823 369.75 292.397 365.533 292.649 361.279C292.673 360.868 292.079 360.848 291.951 361.188C290.465 365.136 289.83 369.509 289.347 373.671C288.849 377.96 288.683 382.235 288.747 386.549C288.813 390.983 289.08 395.407 289.447 399.828C289.62 401.923 289.822 404.016 290.013 406.109C290.158 407.707 290.225 409.292 290.563 410.839C288.405 410.328 286.241 409.845 284.085 409.374C277.209 407.877 270.304 406.488 263.456 404.868C260.095 404.074 256.782 403.122 253.436 402.276C250.285 401.48 246.959 400.515 243.724 400.16C242.57 400.033 242.423 401.557 243.187 402.074C245.816 403.856 249.308 405.096 252.345 406.094C255.393 407.094 258.561 407.814 261.685 408.555C268.2 410.102 274.776 411.366 281.343 412.683C287.9 413.998 294.47 415.304 300.954 416.927C304.076 417.709 307.188 418.493 310.283 419.37ZM325.745 341.188C327.431 342.143 328.953 339.617 327.273 338.665C325.075 337.42 322.732 336.484 320.371 335.572C318.558 334.872 317.779 337.699 319.566 338.39C321.688 339.21 323.77 340.07 325.745 341.188ZM331.85 449.76C333.54 450.706 335.063 448.18 333.378 447.237C331.011 445.913 328.418 445.029 325.965 443.87C324.219 443.045 322.686 445.567 324.437 446.394C326.89 447.552 329.482 448.436 331.85 449.76ZM334.595 388.13C332.961 389.628 330.78 390.333 328.723 391.121C326.929 391.806 327.716 394.631 329.528 393.939C332.09 392.958 334.701 392.062 336.737 390.196C338.153 388.897 336.008 386.835 334.595 388.13ZM316.513 304.431C314.716 305.111 315.503 307.936 317.318 307.249C319.331 306.487 321.41 305.907 323.423 305.145C325.22 304.465 324.433 301.64 322.618 302.327C320.605 303.089 318.526 303.669 316.513 304.431ZM284.614 271.186C282.705 270.875 281.892 273.692 283.809 274.004C286.188 274.392 288.53 274.845 290.786 275.688C292.608 276.368 293.389 273.541 291.591 272.87C289.335 272.027 286.992 271.574 284.614 271.186ZM274.074 352.13C275.825 351.299 274.289 348.78 272.546 349.606C270.709 350.478 268.807 351.151 266.803 351.563C264.895 351.955 265.707 354.772 267.608 354.381C269.863 353.917 272.009 353.11 274.074 352.13ZM264.119 306.535C262.234 306.037 261.437 308.856 263.314 309.353C266.617 310.226 270.017 310.68 273.344 311.457C275.24 311.9 276.042 309.082 274.149 308.64C270.822 307.862 267.422 307.409 264.119 306.535ZM221.889 292.227C219.972 292.569 220.789 295.385 222.694 295.045C224.722 294.683 226.777 294.677 228.833 294.676C230.784 294.676 230.781 291.753 228.833 291.754C226.497 291.755 224.191 291.816 221.889 292.227ZM84.1606 307.495C89.1078 307.038 94.0627 306.673 99.0251 306.399C99.2564 306.387 99.4831 306.373 99.7144 306.362C99.7405 306.311 99.7746 306.263 99.809 306.212C101.429 303.918 102.621 301.624 103.654 299.03C104.642 296.561 105.6 294.015 107.122 291.787C108.857 289.248 111.2 287.262 113.768 285.54C115.326 286.551 116.771 287.734 118.094 288.989C119.486 290.309 121.627 288.242 120.235 286.922C119.06 285.807 117.805 284.778 116.479 283.847C118.011 282.949 119.573 282.105 121.097 281.266C126.809 278.121 132.657 275.213 138.626 272.554C141.401 271.315 144.209 270.216 147.037 269.102C148.559 268.503 150.061 267.732 151.583 267.038C151.473 266 151.795 264.839 152.62 264.155C153.229 263.655 153.702 263.469 154.429 263.115C154.592 263.06 154.69 263.027 154.736 263.008C154.702 263.016 154.603 263.045 154.441 263.096C154.055 263.268 154.024 263.217 154.35 262.946C154.369 262.355 155.577 261.106 155.853 260.496C156.814 258.402 157.113 256.188 158.532 254.282C160.489 251.655 163.775 250.662 166.838 251.553C167.155 248.393 167.238 245.095 168.472 242.274C168.506 242.198 168.616 242.165 168.665 242.249C169.952 244.364 170.062 246.72 170.161 249.16C170.255 251.45 170.165 253.792 169.854 256.068C170.051 256.214 170.251 256.353 170.46 256.488C171.436 257.109 172.488 257.587 173.594 257.942C175.698 258.614 177.905 258.906 180.112 259.008C185.809 259.271 191.68 258.716 197.282 257.774C202.948 256.82 211.635 255.388 216.677 252.652C220.005 250.848 223.074 248.645 226.186 246.512C225.058 243.005 224.77 239.235 225.905 236.272C226.042 235.918 226.617 235.852 226.727 236.272C227.438 239.1 227.647 241.942 228.593 244.736C228.608 244.776 228.623 244.821 228.638 244.861C228.934 244.667 229.229 244.477 229.524 244.287C230.205 243.852 231.133 244.178 231.542 244.798C238.079 254.738 248.431 255.308 259.302 257.084C271.2 259.027 283.157 261.124 294.596 264.926C305.535 268.565 315.99 273.862 324.272 281.774C326.147 283.566 327.9 285.474 329.555 287.467C327.954 287.662 326.366 287.965 324.798 288.44C322.942 289.003 323.74 291.823 325.603 291.258C327.618 290.647 329.655 290.345 331.712 290.195C337.34 297.624 341.728 306.048 345.522 314.34C352.8 330.238 357.537 347.169 359.717 364.406C358.52 363.714 357.301 363.054 356.053 362.441C354.318 361.59 352.787 364.112 354.524 364.965C356.453 365.911 358.327 366.955 360.142 368.087C360.935 375.632 361.243 383.226 361.056 390.808C360.614 408.882 358.085 427.487 352.366 444.733C349.561 453.197 345.844 461.591 340.306 468.744C337.8 471.984 334.954 474.906 331.6 477.343C329.976 478.526 328.258 479.582 326.444 480.473C324.109 481.628 321.066 482.008 319.052 483.64C318.389 484.178 317.878 484.886 317.492 485.686C317.716 487.206 317.742 488.729 317.311 490.249C317.174 490.724 316.803 491.111 316.345 491.297C316.338 491.429 316.338 491.556 316.338 491.681C316.338 491.739 316.247 491.754 316.236 491.696C316.217 491.582 316.198 491.469 316.179 491.352C316.031 491.399 315.876 491.422 315.717 491.422C309.967 491.442 304.21 491.307 298.453 491.119C298.898 489.803 299.381 488.498 299.843 487.182C300.472 485.394 297.547 484.634 296.924 486.405C296.382 487.944 295.816 489.469 295.312 491.013C289.143 490.791 282.976 490.526 276.82 490.329C263.727 489.909 250.638 489.77 237.542 489.504C217.203 489.088 196.717 488.236 176.347 489.069C175.643 487.626 174.854 486.217 174.107 484.793C173.225 483.114 170.613 484.594 171.492 486.268C172.012 487.257 172.55 488.234 173.061 489.221C168.936 489.427 164.814 489.701 160.702 490.074C153.684 490.709 146.734 491.838 139.724 492.539C132.597 493.255 125.624 493.128 118.553 491.991C117.281 491.787 116.532 491.045 116.221 490.124C116.21 490.121 116.202 490.114 116.195 490.103C115.832 489.693 115.491 489.354 115.139 489.058C114.719 488.795 114.264 488.572 113.731 488.375C112.735 488.009 111.698 487.787 110.646 487.637C109.487 487.469 108.314 487.454 107.156 487.316C106.18 487.195 105.225 487.016 104.272 486.797C102.557 486.402 100.929 485.887 99.309 485.204C97.8971 484.609 96.6219 483.754 95.4178 482.822C92.9271 481.065 90.7699 478.823 88.8845 476.492C87.7868 475.129 86.7534 473.715 85.8147 472.244C84.1795 469.693 82.7866 467.045 81.3785 464.375C80.8675 463.583 80.4011 462.773 79.9749 461.946C82.7267 461.163 85.5051 460.526 88.4224 460.48C90.3725 460.45 90.3721 457.528 88.4224 457.558C85.0766 457.609 81.9118 458.364 78.7674 459.262C78.6141 458.87 78.4673 458.474 78.3314 458.073C77.9566 457.237 77.6462 456.378 77.3889 455.509C77.2378 455.114 77.086 454.72 76.9346 454.325C76.5939 452.959 76.2533 451.589 75.9088 450.219C75.2237 448.028 74.6828 445.803 74.285 443.549C73.9519 442.066 73.6945 440.572 73.5204 439.06C72.9904 435.396 72.5589 431.739 72.5287 428.035C72.5741 425.752 72.7255 423.472 72.9828 421.204C73.0926 419.662 73.2781 418.128 73.5279 416.605C73.8535 414.34 74.1752 412.097 74.7165 409.861C75.1215 408.349 75.5265 406.837 75.9315 405.324C76.9422 402.172 78.1345 399.082 79.5089 396.061C79.5843 395.871 79.9669 395.454 80.1974 395.45C80.3716 395.447 80.6142 395.6 80.5348 395.805C80.5268 395.823 80.5196 395.845 80.5116 395.863C80.5911 395.692 80.6668 395.516 80.7463 395.345C80.8145 395.184 81.0794 394.863 81.2838 394.866C81.2952 394.866 81.3069 394.866 81.3217 394.87C81.2687 394.833 81.2195 394.786 81.1703 394.731C79.8114 393.179 78.9294 391.136 77.9566 389.339C77.1504 387.856 76.3896 386.292 76.17 384.616C75.9774 383.144 76.2381 381.693 77.1958 380.503C78.2859 379.147 80.3375 378.512 79.1982 376.554C77.9037 374.325 75.9997 372.393 77.8961 369.861C78.8613 368.572 80.3905 367.864 81.5261 366.742C82.832 365.445 83.4531 363.71 83.4187 361.938C83.3392 361.982 83.2332 361.96 83.1954 361.85C82.0977 358.65 82.8925 355.137 84.0168 352.02C84.6299 350.329 85.9286 349.865 87.4386 349.781C80.8981 337.453 74.7774 324.926 69.3226 312.112C69.1409 311.692 68.963 311.272 68.7854 310.851C68.5201 310.223 69.0803 309.387 69.7276 309.248C74.4439 308.25 79.3571 307.933 84.1606 307.495Z" fill="#8FA7DF"/>
<path fill-rule="evenodd" clip-rule="evenodd" d="M135.052 157.832C136.454 147.012 140.858 135.523 145.49 125.436C155.905 104.108 179.75 101.171 201.126 96.7736C222.219 93.8038 244.556 91.1221 265.331 97.0476C277.011 99.8147 281.573 113.267 279.729 123.883C278.677 130.498 275.564 136.759 272.909 142.89C267.632 155.48 264.283 168.959 264.278 182.591C264.64 191.499 265.94 201.666 255.355 205.44C245.282 210.284 244.431 223.415 231.819 230.866C226.719 240.857 212.826 241.736 202.828 244.053C196.508 245.223 190.117 246.084 183.708 246.64C165.152 248.939 150.308 243.739 140.594 227.753C134.094 218.024 129.254 206.791 130.45 195C131.64 182.583 133.625 170.232 135.052 157.832Z" fill="#8FA7DF"/>
<path fill-rule="evenodd" clip-rule="evenodd" d="M200.965 70.8527C199.906 69.6918 198.274 70.09 197.284 71.0079C196.639 71.1917 196.014 71.4649 195.424 71.8266C194.091 71.6611 192.693 71.6611 191.385 71.7075C191.068 71.5354 190.728 71.3824 190.358 71.2509C187.714 70.3161 185.373 70.791 183.441 72.0425C182.511 71.1913 181.337 70.6573 179.837 70.738C178.498 70.8103 177.544 71.4196 176.726 72.2222C175.911 71.085 174.592 70.2737 172.95 70.1608C170.655 70.003 168.448 70.8932 166.619 72.2715C165.553 71.0894 164.101 70.41 162.482 70.4034C161.417 70.2163 160.293 70.2901 159.277 70.5868C157.802 71.0174 156.507 71.8244 155.476 72.8717C153.845 71.3608 151.848 70.2737 149.545 70.4322C146.565 70.6405 144.095 72.7595 142.946 75.3678C140.929 76.1491 139.067 77.2636 137.511 78.8527C137.428 78.9363 137.349 79.024 137.265 79.1121C136.427 79.4112 135.637 79.8353 134.942 80.3939C132.74 82.1659 132.249 84.7303 132.978 87.2432C132.876 87.6454 132.789 88.0545 132.71 88.4633C130.648 88.7665 128.774 89.9175 127.709 91.7915C126.251 94.3632 126.538 97.7528 128.117 100.208C128.796 101.264 129.657 102.154 130.625 102.932C129.531 105.336 130.056 108.204 131.82 110.148C132.25 110.818 132.778 111.423 133.371 111.971C132.716 114.456 133.882 117.02 136.209 118.348L136.408 118.83C136.441 118.91 136.475 118.989 136.51 119.068C136.536 119.171 136.567 119.269 136.599 119.369C136.654 120.251 136.955 121.116 137.551 121.932C138.771 123.603 140.283 124.692 141.085 126.643L141.166 126.848C141.511 127.771 142.624 128.422 143.573 128.137C138.305 138.6 135.543 150.242 133.647 161.651C132.701 167.342 131.972 173.054 131.38 178.787L130.8 184.496C130.289 189.571 129.835 194.663 129.832 199.755C129.824 211.273 133.231 222.352 140.544 231.518C147.46 240.182 157.247 246.461 168.303 248.935C179.718 251.484 193.108 250.48 203.344 244.642C206.362 242.926 203.718 238.798 200.647 240.179C194.834 242.794 188.927 244.738 182.483 245.172C176.201 245.599 169.904 244.84 163.948 242.852C154.093 239.561 145.708 232.668 140.317 224.084C137.662 219.853 135.739 215.262 134.716 210.41C133.442 204.364 133.634 198.114 134.102 191.99L134.134 191.572C135.06 179.773 136.28 167.901 138.251 156.219C139.994 145.889 142.674 135.768 146.153 125.871C147.516 124.711 149.041 123.751 150.672 123.021C162.618 122.539 174.586 122.68 186.517 123.477C196.692 124.161 206.817 125.319 216.867 127.006L217.943 127.189C220.168 127.572 222.638 127.791 224.735 128.657C226.533 129.402 227.262 130.834 227.715 132.595C228.856 137.048 229.029 141.921 229.222 146.487C229.411 150.951 228.984 155.452 229.354 159.901C229.668 163.623 230.654 167.433 233.505 170.126C234.997 171.535 236.833 172.306 238.555 173.377C239.67 174.067 240.142 174.779 239.998 176.058C239.689 178.856 237.358 182.381 239.976 184.777C240.437 185.198 241.234 185.252 241.687 184.777C242.767 183.642 244.259 182.776 245.54 181.859C246.076 181.479 245.63 180.741 245.022 181.004C244.221 181.351 243.405 181.76 242.571 182.118C244.414 180.65 247.035 179.93 249.219 179.503C250.318 179.291 251.474 179.229 252.618 179.328C253.464 179.718 254.329 180.08 255.194 180.434C256.293 180.88 257.404 181.285 258.522 181.669C262.401 184.726 264.252 189.698 263.444 194.56C263.002 197.245 261.721 200.164 259.308 201.731C256.448 203.587 252.618 202.79 249.528 204.168C246.635 205.457 244.875 208.062 243.557 210.758L243.007 211.88C241.783 214.365 240.526 216.784 238.854 219.046C236.92 221.665 234.552 224.018 231.968 226.038C230.715 227.016 229.379 227.895 227.998 228.696L227.62 228.913C226.223 229.706 225.222 230.461 225.127 232.138C225.097 232.723 225.479 233.256 225.97 233.559C228.085 234.856 230.189 233.234 231.949 232.102C233.849 230.882 235.666 229.508 237.347 228.011C240.542 225.169 243.307 221.793 245.434 218.129C247.054 215.339 247.976 211.412 250.537 209.249C252.101 207.93 254.31 207.919 256.263 207.678C258.08 207.452 259.799 207.086 261.415 206.221C267.991 202.688 269.85 194.137 268.29 187.528C268.025 186.414 267.655 185.329 267.198 184.284C269.646 184.679 272.396 182.232 271.402 179.762C271.327 179.576 271.24 179.401 271.157 179.221C272.77 178.195 274.043 176.639 274.647 174.604C274.957 173.552 275.002 172.489 274.84 171.462C275.621 170.955 276.267 170.257 276.683 169.398C277.982 168.818 279.134 167.949 279.822 166.707C280.774 164.993 280.653 163.415 279.927 161.994C280.029 161.815 280.128 161.633 280.222 161.446C282.885 159.813 284.743 157 284.532 153.881C284.464 152.847 284.199 151.915 283.792 151.076C283.826 150.97 283.86 150.86 283.89 150.754C286.118 149.658 287.962 147.857 288.619 145.454C289.276 143.035 288.502 140.624 286.953 138.768C289.219 137.165 290.583 134.926 289.756 131.539C289.42 130.162 288.743 128.909 287.829 127.853C287.833 127.821 287.841 127.788 287.848 127.755L288.06 127.596C290.858 125.46 292.466 122.739 290.749 119.393C289.979 117.888 288.879 116.84 287.588 116.149L287.523 115.952C288.449 114.034 288.762 111.904 288.124 109.665C287.603 107.821 286.368 106.352 284.789 105.377C284.894 104.551 284.879 103.671 284.709 102.717C284.426 101.107 283.599 99.7002 282.39 98.7029C282.345 98.4907 282.288 98.2828 282.224 98.0742C281.816 96.7997 281.053 95.4152 280.169 94.3884C279.44 93.5373 278.624 93.2268 277.627 93.1939C277.688 92.4089 277.646 91.6121 277.48 90.8048C276.97 88.3139 275.331 85.972 272.902 84.9089C271.905 84.4742 270.855 84.3468 269.842 84.4523C268.981 82.6989 267.3 81.428 265.234 81.1541C264.429 81.0445 263.682 81.0514 262.994 81.1504C262.605 80.9747 262.201 80.818 261.778 80.6752C261.498 80.5802 261.215 80.4925 260.932 80.4052C259.976 79.2582 258.718 78.3409 257.249 77.7897C255.553 77.1504 253.827 77.2158 252.297 77.7528L251.81 77.6542C251.047 76.3756 249.831 75.3857 247.961 74.9363C245.838 74.4286 243.659 75.1373 241.989 76.4271C241.981 76.4271 241.974 76.4271 241.963 76.4231C241.09 74.5345 239.598 73.2194 237.094 73.3108C235.534 73.3692 234.125 74.1184 233.037 75.1851C232.433 75.1117 231.828 75.0459 231.22 74.9805C230.578 74.2532 229.864 73.5742 229.075 72.9641C227.783 71.9628 226.102 72.0436 225.15 73.4532C224.942 73.7601 224.75 74.0706 224.557 74.3811L223.685 74.3226C222.657 72.982 221.256 72.0761 219.337 72.0034C217.577 71.9336 216.323 72.7668 215.367 73.9318C214.589 73.9135 213.807 73.8993 213.025 73.8879C212.115 72.8688 211.042 71.9701 209.818 71.2249C208.882 70.6551 207.499 70.849 206.74 71.6089C206.227 72.1254 205.75 72.6646 205.306 73.2227C204.162 71.9822 202.616 71.165 200.965 70.8527ZM256.558 186.853C254.794 185.881 252.422 186.933 250.714 187.758C248.633 188.763 246.567 190.279 245.294 192.179C243.56 194.765 247.636 196.854 249.46 194.535C250.582 193.106 251.477 191.667 252.837 190.418C254.08 189.271 255.882 188.504 256.596 186.991C256.622 186.94 256.614 186.882 256.558 186.853ZM255.319 124.076L255.286 123.985C254.784 122.658 256.973 122.086 257.471 123.402C258.225 125.397 257.355 127.565 255.318 128.427C254.753 128.666 254.108 128.583 253.768 128.034C253.482 127.572 253.615 126.771 254.174 126.535C255.321 126.05 255.705 125.194 255.319 124.076ZM274.179 120.365C273.083 119.43 274.691 117.884 275.782 118.815C276.799 119.684 277.554 120.864 277.358 122.221C277.158 123.604 276.08 124.581 274.899 125.271C273.648 126.002 272.508 124.108 273.755 123.378L273.896 123.295C274.419 122.981 275.032 122.548 275.121 121.929C275.215 121.272 274.64 120.758 274.179 120.365ZM267.959 103.864L267.881 103.809C266.704 102.996 267.835 101.095 269.025 101.916C270.117 102.67 270.992 103.649 271.085 104.999C271.174 106.311 270.484 107.448 269.581 108.372C268.577 109.398 266.976 107.847 267.978 106.822C268.955 105.823 269.146 104.734 267.959 103.864Z" fill="#8FA7DF"/>
<path fill-rule="evenodd" clip-rule="evenodd" d="M193.046 193.242C183.011 193.242 174.877 186.373 174.877 177.9C174.877 169.426 183.011 162.557 193.046 162.557C203.08 162.557 213.94 169.148 213.94 177.621C213.94 181.216 211.005 187.499 208.552 190.114C205.224 193.663 198.823 193.242 193.046 193.242Z" fill="#8FA7DF"/>
<path fill-rule="evenodd" clip-rule="evenodd" d="M149.798 190.306C142.116 190.306 135.889 184.094 135.889 176.431C135.889 168.769 142.116 162.557 149.798 162.557C157.479 162.557 165.792 168.517 165.792 176.179C165.792 179.431 163.546 185.112 161.668 187.477C159.121 190.686 154.22 190.306 149.798 190.306Z" fill="#8FA7DF"/>
<path fill-rule="evenodd" clip-rule="evenodd" d="M193.299 202.773C193.22 202.702 193.094 202.677 192.998 202.736C191.361 203.735 191.167 207.096 191.148 209.037C190.471 209.208 189.801 209.401 189.169 209.536C187.825 209.823 186.473 210.074 185.125 210.337L184.114 210.539C180.735 211.226 177.293 211.734 173.85 211.989C170.509 212.236 167.07 212.326 163.738 211.911C162.307 211.732 160.885 211.434 159.502 211.036C157.868 210.566 156.566 209.786 155.046 209.103C151.24 207.392 148.051 212.405 151.713 214.605C154.857 216.492 159.147 217.173 162.776 217.465C166.485 217.764 170.18 217.436 173.845 216.87C177.807 216.257 181.688 215.316 185.445 213.952C187.034 213.376 188.572 212.677 190.073 211.912L190.482 211.702C190.731 211.573 190.991 211.442 191.253 211.309C191.534 213.73 192.344 216.068 193.324 218.315L193.347 218.276C193.882 220.049 195.817 221.146 197.742 220.363C200.002 219.444 200.174 217.033 198.859 215.321L198.796 215.241C197.25 213.322 196.282 210.941 195.44 208.671C195.008 207.508 194.608 206.316 194.262 205.126C194.011 204.265 194.002 203.399 193.299 202.773ZM135.071 183.496C136.41 187.402 139.331 190.41 143.4 191.733C147.433 193.044 151.918 192.566 156.041 191.857C156.942 191.702 157.856 191.531 158.769 191.331C158.022 191.777 157.363 192.406 156.731 193.07C155.798 194.052 154.952 195.087 154.695 196.317C154.44 197.536 154.842 198.464 155.574 199.165C156.7 200.242 158.516 200.822 160.055 201.143C163.5 201.862 166.951 201.75 170.379 201.013C171.254 200.825 171.848 200.372 172.181 199.782C172.586 199.064 172.619 198.171 172.387 197.359C172.155 196.546 171.653 195.797 170.925 195.383C170.326 195.041 169.577 194.948 168.726 195.221C167.019 195.769 165.324 196.132 163.521 196.174C162.757 196.191 161.989 196.17 161.227 196.102C160.796 196.064 160.366 196.011 159.939 195.945C160.19 195.621 160.435 195.291 160.674 194.958C160.956 194.565 161.231 194.166 161.494 193.761C162.253 192.587 162.886 191.381 163.441 190.107C163.62 189.699 163.785 189.289 163.944 188.878C163.966 188.819 163.989 188.76 164.012 188.7C164.061 188.661 164.109 188.621 164.158 188.581C165.244 187.673 166.156 186.556 166.8 185.171C168.545 181.421 168.261 176.766 167.202 172.872C166.354 169.751 164.481 166.864 162.006 164.903C161.574 164.217 161.289 163.801 160.939 163.45C159.517 162.023 157.533 161.06 155.596 160.474C151.271 159.165 146.561 160.104 142.894 162.596C139.509 164.897 136.859 168.348 135.427 172.186C134.071 175.821 133.806 179.808 135.071 183.496ZM193.984 159.756C188.84 159.714 183.607 161.179 179.433 164.112C175.439 166.919 172.304 171.062 172.308 175.998C172.312 180.803 174.974 185.528 177.926 189.249C181.239 193.425 185.57 195.439 191.014 195.486C193.844 195.51 196.695 195.268 199.505 194.936L201.013 194.753C203.088 194.494 205.186 194.188 207.154 193.5C216.52 190.221 216.81 178.39 213.341 170.827C210.663 164.989 203.884 159.294 197.124 159.978C196.105 159.84 195.059 159.765 193.984 159.756ZM185.296 165.32C191.738 162.53 199.564 163.365 205.812 166.343C208.287 168.949 210.096 172.233 210.828 175.248C211.61 178.467 211.496 181.934 210.32 185.054C208.885 188.862 205.352 189.805 201.54 190.39L200.06 190.614L199.439 190.705C195.694 191.244 191.599 191.664 188 190.989C183.989 190.236 181.441 187.109 179.436 183.902L179.343 183.752C177.26 180.392 175.517 176.306 177.264 172.457C178.749 169.185 181.992 166.751 185.296 165.32ZM147.277 166.292C149.488 165.11 152.009 164.895 154.396 165.686C155.423 166.027 156.311 166.578 157.171 167.197L157.514 167.447C158.572 168.231 159.56 168.628 160.354 169.687L160.457 169.829C160.857 170.406 161.558 170.637 162.196 170.56C162.94 172.539 163.247 174.679 163.253 176.786L163.252 177.065L163.249 177.349C163.201 179.84 162.751 182.886 160.721 184.555C158.869 186.077 156.065 186.442 153.562 186.654L151.632 186.809L151.12 186.847C148.481 187.024 145.59 186.963 143.379 185.456C141.453 184.143 140.544 181.915 140.309 179.714C139.752 174.517 142.478 168.858 147.277 166.292ZM195.394 166.772C191.847 165.025 187.586 165.463 184.582 167.653C184.848 167.703 185.111 167.768 185.373 167.894C186.055 168.224 186.478 168.885 186.639 169.588C186.821 170.382 186.394 171.134 185.582 171.385C184.875 171.603 184.036 171.702 183.379 171.288C183.035 171.071 182.795 170.785 182.637 170.424L182.615 170.371L182.587 170.333L182.576 170.314C182.574 170.307 182.587 170.321 182.606 170.35C182.586 170.305 182.567 170.26 182.549 170.215C182.521 170.16 182.495 170.106 182.473 170.049C182.435 170.017 182.4 169.982 182.365 169.946C181.819 170.757 181.391 171.672 181.118 172.691C179.372 179.228 186.534 186.012 192.932 186.69C195.35 186.947 197.555 186.391 199.384 185.296C199.368 185.274 199.349 185.255 199.334 185.232C198.599 185.36 197.722 185.043 197.455 184.251C196.774 182.233 197.472 179.872 199.751 179.213C201.217 178.788 202.718 179.257 203.766 180.225C204.558 178.352 204.842 176.245 204.467 174.134C203.938 171.155 202.076 168.472 199.179 167.232C197.768 166.629 196.552 166.502 195.394 166.772ZM158.039 170.805L157.931 170.641C156.835 169.013 154.74 167.017 152.569 167.566C152.264 167.643 151.964 167.767 151.695 167.928C150.502 167.772 149.253 168.033 148.227 168.642L148.255 168.71C148.259 168.722 148.263 168.733 148.266 168.745C148.36 169.141 148.305 169.507 148.114 169.871C147.906 170.265 147.61 170.639 147.208 170.865C146.933 171.02 146.61 171.102 146.292 171.095C145.827 171.087 145.418 170.89 145.081 170.588C144.899 170.424 144.771 170.184 144.701 169.937C144.535 170.091 144.374 170.262 144.221 170.456C141.703 173.651 142.051 178.785 145.005 181.632C145.124 181.747 145.251 181.851 145.376 181.957C146.575 183.55 148.423 184.631 150.643 184.85C152.699 185.053 154.754 184.466 156.33 183.263C156.204 183.198 156.085 183.114 155.983 183.002C155.714 182.708 155.492 182.418 155.329 182.059C155.288 181.969 155.248 181.878 155.21 181.786L155.156 181.647C155.146 181.622 155.062 181.388 155.085 181.429L155.09 181.439L155.06 181.372C154.778 180.692 154.892 179.915 155.562 179.489L155.635 179.445C155.854 179.322 156.125 179.263 156.4 179.263C157.083 178.455 158.101 178.27 159.056 178.506L159.089 178.245C159.094 178.202 159.099 178.158 159.102 178.114C159.842 175.747 159.485 173.056 158.039 170.805ZM190.894 146.97L190.648 146.933C188.79 146.674 187.527 146.972 186.319 148.504C185.743 149.235 185.921 150.337 186.319 151.084C187.605 153.495 191.144 152.996 193.527 153.475C195.854 153.943 198.175 154.579 200.352 155.504C202.573 156.449 204.659 157.566 206.692 158.842C208.531 159.997 210.199 161.733 212.301 162.404C212.395 162.435 212.509 162.353 212.503 162.256C212.354 159.95 210.358 157.833 208.812 156.191C207.024 154.291 204.849 152.605 202.584 151.265C200.247 149.882 197.721 148.743 195.106 147.949C193.728 147.53 192.319 147.198 190.894 146.97ZM162.589 150.101C160.25 146.8 154.435 147.433 151.004 148.315C146.701 149.42 142.039 151.656 139.023 154.893C136.32 157.792 140.363 161.559 143.402 159.119L144.213 158.47L144.732 158.059C147.065 156.22 149.375 154.556 152.218 153.33C155.551 151.894 158.929 151.194 162.452 150.428C162.59 150.398 162.671 150.217 162.589 150.101Z" fill="#8FA7DF"/>
<path fill-rule="evenodd" clip-rule="evenodd" d="M111.241 304.329C114.311 292.423 117.134 287.374 122.589 283.236C127.69 279.366 135.137 276.115 146.003 273.74C157.321 271.762 157.642 265.88 160.48 256.428C161.307 253.586 165.41 252.83 167.18 254.879C167.43 254.609 167.69 254.362 167.96 254.14C167.719 252.784 169.692 248.9 169.626 247.604C168.938 234.073 173.365 227.278 184.413 224.752C186.816 224.203 203.137 223.879 205.479 224.527C215.721 227.358 225.804 236.347 224.261 247.175C227.476 251.376 230.622 253.94 235.582 255.293C243.307 256.274 239.426 365.683 226.011 431.231C220.255 459.354 82.6274 411.487 88.8464 397.401C87.9648 394.819 89.5717 391.982 88.8464 389.316C88.3216 387.386 86.9774 386.588 86.3008 384.677C85.3487 381.989 86.3841 378.382 87.4561 375.638C87.8953 374.271 86.6476 372.799 86.3008 371.404C84.6561 364.823 88.4222 365.403 91.1373 361.003C91.0969 360.99 90.3908 357.849 90.394 357.865C89.9783 355.622 91.0197 352.75 91.9281 350.878C92.5421 349.613 93.8574 348.821 95.1642 348.966C93.8481 344.499 92.1837 340.782 90.394 336.479C87.2286 328.893 84.2185 320.957 79.6733 314.091C77.812 311.279 79.3153 308.693 82.3275 308.501C92.077 307.882 101.72 306.479 111.241 304.329Z" fill="#EDB98A"/>
<path fill-rule="evenodd" clip-rule="evenodd" d="M126.46 305.249L148.715 342.907C148.715 342.907 143.436 343.434 141.299 344.46C139.162 345.487 129.352 357.956 129.352 357.956L127.794 364.823L131.487 370.359L130.047 373.835C130.047 373.835 129.019 371.48 126.46 369.652C123.902 367.824 118.259 364.823 118.259 364.823C118.259 364.823 120.134 363.82 120.134 362.642C120.134 361.465 121.786 356.441 118.259 354.543C114.732 352.646 96.5073 348.204 96.5073 348.204L78.0369 309.248L126.46 305.249Z" fill="#EC7495"/>
<path fill-rule="evenodd" clip-rule="evenodd" d="M225.739 255.549L155.073 267.95L122.589 283.237L117.286 287.321L148.716 342.907L197.245 351.761L209.609 383.871L207.086 420.067L128.137 410.655L94.0826 406.609L86.0771 438.924L87.5234 452.217L89.6268 458.958L174.051 481.749C174.051 481.749 217.04 477.582 224.661 477.582C232.282 477.582 288.155 483.13 288.155 483.13L301.083 481.749C301.083 481.749 329.685 451.607 334.121 440.879C338.557 430.151 348.15 364.941 348.15 364.941L347.094 354.921L322.382 291.334C322.382 291.334 319.082 288.338 314.922 283.237C310.762 278.135 225.739 255.549 225.739 255.549Z" fill="#8FA7DF"/>
<path fill-rule="evenodd" clip-rule="evenodd" d="M97.8399 347.401C104.226 347.726 110.62 349.244 116.396 351.995C118.76 353.122 120.902 354.749 121.529 357.426C121.846 358.793 121.768 360.206 121.6 361.587C121.472 362.633 121.441 363.968 120.532 364.676C120.377 364.795 120.211 364.887 120.039 364.954C122.17 365.916 124.199 367.071 126.003 368.262C127.651 369.35 129.345 371.027 130.106 372.918C130.169 372.703 130.233 372.503 130.296 372.312C131.593 368.48 133.59 365.342 136.735 363.231C137.093 361.93 140.926 356.328 144.487 356.539C148.386 356.768 151.523 357.053 155.049 358.846C156.335 358.818 157.617 358.835 158.885 358.892C159.103 358.899 159.093 359.195 158.885 359.219C157.856 359.35 156.828 359.494 155.799 359.663C153.355 360.054 150.917 360.551 148.533 361.167C145.672 361.907 142.713 362.65 140.039 363.943C134.855 366.455 131.645 373.021 132.304 378.734C132.413 379.671 132.776 382.503 134.076 382.211C135.175 381.964 135.612 379.671 135.996 378.822C137.024 376.568 138.877 375.095 141.1 374.098C143.71 372.925 146.503 372.133 149.209 371.21C150.741 370.685 152.273 370.16 153.809 369.639C155.38 369.1 156.874 368.357 158.547 368.734C159.558 368.963 159.674 370.167 159.107 370.858C158.244 371.911 156.962 372.221 155.718 372.654C154.077 373.225 152.439 373.796 150.801 374.366C148.268 375.247 145.616 375.99 143.147 377.068L143.224 377.244C143.425 377.188 143.661 377.388 143.622 377.635C143.252 379.914 142.738 382.549 143.309 384.832C143.759 386.642 145.348 388.647 147.412 388.114C147.088 387.818 146.968 387.308 147.187 386.836C148.004 385.089 158.712 378.191 159.667 380.753C159.699 380.844 159.6 380.911 159.522 380.897C158.709 380.728 157.346 382.116 156.694 382.556C155.754 383.19 154.799 383.81 153.869 384.462C152.851 385.173 151.857 385.92 150.889 386.691C150.128 387.298 149.554 387.928 148.681 388.234C149.138 388.453 149.501 388.858 149.656 389.375C150.05 390.725 150.811 391.869 152.132 392.465C153.517 393.085 155.077 392.694 156.535 392.845C158.522 393.046 160.255 393.99 161.703 395.339C164.743 398.178 166.268 403.18 170.52 404.522C173.059 405.322 175.877 404.818 178.449 404.455C181.32 404.05 184.117 403.73 187.009 404.152C189.777 404.558 192.394 405.516 194.924 406.685C197.294 407.781 199.915 409.021 202.018 410.655C202.451 409.32 202.888 407.999 203.219 406.636C204.001 403.413 204.424 400.13 204.526 396.818C204.621 393.666 204.445 390.499 204.174 387.361C204.04 385.793 203.829 384.233 203.695 382.665C203.66 382.271 203.589 381.848 203.536 381.425C199.781 379.209 195.836 377.512 191.859 375.765C191.848 375.761 191.838 375.754 191.827 375.751C191.704 375.694 191.584 375.642 191.461 375.589C191.465 375.581 191.468 375.575 191.475 375.567C191.021 375.289 190.704 374.919 190.513 374.503C184.782 370.703 179.992 365.514 176.42 359.462C174.923 356.926 173.482 354.295 171.524 352.072C169.438 349.701 166.962 348.292 163.897 347.56C160.315 346.701 156.623 346.186 152.953 345.894C150.949 345.735 148.709 345.489 146.524 345.499C145.003 345.51 143.513 345.64 142.146 346.017C140.12 346.573 138.937 348.113 137.665 349.67C136.45 351.164 135.242 352.661 134.108 354.218C133.034 355.693 132.019 357.218 131.138 358.818C130.61 359.776 130.12 360.762 129.708 361.78C129.564 362.14 129.373 362.548 129.285 362.921C129.197 363.298 129.359 363.697 128.937 363.697C130.68 363.721 131.839 368.069 130.106 367.967C127.669 367.825 126.444 364.904 126.922 362.312C127.774 357.688 132.374 352.103 133.284 350.92C135.295 348.307 137.369 344.897 140.589 343.682C140.635 343.664 140.684 343.647 140.73 343.632C139.793 342.745 139.053 341.681 138.345 340.599C137.616 339.486 136.746 338.211 136.506 336.89C136.355 336.049 137.401 335.569 137.898 336.305C138.62 337.38 138.969 338.739 139.508 339.92C140.057 341.117 140.726 342.248 141.255 343.456C142.526 343.065 143.9 342.886 145.299 342.826C143.534 340.438 140.519 335.83 140.156 335.238C138.486 332.498 136.897 329.673 135.379 326.844C133.738 323.779 132.332 320.588 130.761 317.488C129.87 315.731 128.972 313.959 127.982 312.254C127.64 311.669 127.274 311.084 126.858 310.552C126.777 310.447 126.675 310.359 126.58 310.26C126.471 310.2 126.358 310.133 126.295 310.098C125.724 309.771 125.523 309.01 125.122 308.527C124.481 307.749 123.727 307.657 122.762 307.646C120.705 307.625 118.64 307.706 116.587 307.763C113.568 307.847 110.553 307.967 107.537 308.125C106.625 308.175 105.716 308.224 104.804 308.28C100.418 308.541 96.0363 308.883 91.6649 309.302C87.7972 309.672 83.9295 310.274 80.0583 310.563C85.2997 323.015 91.1119 335.242 97.6923 347.042C97.7589 347.162 97.8085 347.282 97.8399 347.401ZM126.922 379.481C127.767 379.869 128.588 380.351 129.352 380.901C129.225 380.045 129.194 379.143 129.229 378.237C128.598 378.914 127.792 379.301 126.922 379.481ZM90.8336 358.061C90.8935 358.067 90.9499 358.099 90.978 358.159C92.1475 360.572 91.6582 363.267 89.7487 365.158C88.7483 366.145 86.5679 367.258 86.6387 368.878C86.6985 370.188 88.1248 371.287 88.7342 372.369C89.3013 373.376 89.5127 374.482 89.0583 375.575C88.4771 376.973 86.8532 377.529 86.2966 378.903C85.5921 380.647 86.7369 382.75 87.5401 384.268C88.2868 385.673 89.2523 387.079 89.8931 388.565C94.187 390.788 103.93 394.825 105.104 395.051C106.533 395.328 107.967 395.593 109.405 395.84C112.163 396.318 114.928 396.762 117.7 397.153C119.278 397.375 120.859 397.593 122.441 397.766C123.822 397.914 125.379 398.115 126.492 397.076C128.736 394.976 127.478 391.457 126.059 389.337C126.03 389.295 126.03 389.256 126.041 389.22C124.702 388.907 123.367 388.541 122.036 388.283C119.475 387.79 116.897 387.375 114.315 387.005C109.01 386.247 103.67 385.747 98.3369 385.244C97.016 385.117 97.0019 383.039 98.3369 383.162C105.998 383.863 113.698 384.528 121.257 386.005C123.153 386.371 125.034 386.786 126.904 387.255C127.788 387.474 128.736 387.815 129.662 387.826C129.719 387.826 129.775 387.826 129.831 387.822C131.645 387.766 131.91 386.213 130.913 384.92C130.789 384.761 130.663 384.602 130.532 384.451C128.771 382.352 126.577 380.95 124.315 379.498C121.782 379.153 119.257 378.385 116.777 377.822C110.655 376.427 104.533 375.032 98.407 373.64C97.2062 373.366 97.7166 371.52 98.9178 371.791C103.567 372.845 108.217 373.898 112.867 374.951L119.672 376.494C121.032 376.8 122.73 377.417 124.329 377.639C125.118 377.748 125.883 377.762 126.573 377.6C128.803 377.072 128.915 374.285 127.954 372.629C126.876 370.77 124.84 369.607 123.033 368.554C119.901 366.726 116.569 365.412 113.314 363.897C112.737 363.77 112.159 363.644 111.581 363.517C108.221 362.777 104.381 362.414 101.218 361.058C100.27 360.656 100.789 359.163 101.725 359.184C104.18 359.237 106.748 360.11 109.147 360.628C111.743 361.192 114.343 361.752 116.939 362.312C117.2 362.368 118.742 362.862 118.975 362.752C119.123 362.682 119.176 362.168 119.225 361.829C119.384 360.716 119.5 359.547 119.327 358.43C118.947 355.926 116.858 354.749 114.744 353.788C110.038 351.649 104.878 350.311 99.742 349.775C98.5585 349.652 97.3749 349.575 96.1843 349.536C94.7862 349.494 93.634 349.247 92.926 350.624C91.8129 352.794 91.2 355.584 90.8336 358.061ZM97.3693 436.734C98.3947 433.187 98.1157 429.401 98.8181 425.783C99.1805 423.917 99.6754 422.066 100.216 420.244C100.652 418.772 101.379 417.207 101.462 415.671C101.467 415.568 101.346 415.509 101.263 415.556C99.816 416.385 98.705 418.176 97.88 419.582C96.8923 421.264 96.1382 423.025 95.5298 424.877C94.3174 428.566 93.3219 433.016 94.8856 436.734C95.3509 437.841 96.9853 438.062 97.3693 436.734ZM137.388 463.581C138.916 462.515 140.029 461.024 141.325 459.708C142.6 458.414 140.607 456.422 139.333 457.716C138.227 458.838 137.267 460.24 135.966 461.148C135.339 461.584 135.05 462.373 135.46 463.075C135.823 463.695 136.763 464.017 137.388 463.581ZM145.909 422.598C143.12 421.391 140.377 420.078 137.457 419.209C135.712 418.69 134.974 421.41 136.708 421.926C139.397 422.727 141.918 423.92 144.487 425.031C146.136 425.744 147.57 423.315 145.909 422.598ZM175.368 421.754C176.05 420.071 173.323 419.345 172.651 421.005C171.877 422.915 170.99 424.776 170.216 426.685C169.534 428.368 172.261 429.094 172.933 427.435C173.707 425.525 174.595 423.664 175.368 421.754ZM204.445 455.365C204.899 455.971 205.657 456.299 206.372 455.871C206.972 455.512 207.338 454.556 206.878 453.943C205.535 452.153 204.174 450.384 202.6 448.788C201.324 447.494 199.332 449.488 200.607 450.781C202.013 452.206 203.245 453.766 204.445 455.365ZM208.602 266.773C207.309 267.657 206.176 268.73 205.071 269.834C203.786 271.118 205.779 273.111 207.064 271.827C207.995 270.896 208.934 269.951 210.025 269.207C210.655 268.776 210.938 267.975 210.53 267.279C210.165 266.655 209.231 266.344 208.602 266.773ZM166.3 312.121C167.031 313.585 167.69 315.021 167.731 316.685C167.776 318.498 170.594 318.499 170.549 316.685C170.495 314.507 169.692 312.618 168.733 310.699C167.923 309.074 165.493 310.503 166.3 312.121ZM150.779 275.701C149.264 274.691 147.855 277.133 149.357 278.134C150.574 278.945 151.792 279.757 153.009 280.569C154.523 281.578 155.933 279.137 154.431 278.135C153.214 277.324 151.997 276.512 150.779 275.701ZM218.1 339.378C218.358 341.169 221.073 340.403 220.817 338.629C220.421 335.888 219.937 333.183 219.194 330.513C218.707 328.766 215.989 329.513 216.476 331.262C217.22 333.932 217.704 336.637 218.1 339.378ZM227.98 371.658C229.794 371.62 229.794 368.802 227.98 368.84C226.338 368.875 224.725 369.307 223.141 369.702C221.38 370.142 222.131 372.859 223.891 372.419C225.229 372.085 226.592 371.688 227.98 371.658ZM231.627 436.684C232.25 436.987 232.89 437.26 233.519 437.548C234.781 438.125 236.041 438.702 237.302 439.281C239.928 440.486 242.552 441.696 245.174 442.909C250.422 445.339 255.711 447.682 260.972 450.085C266.338 452.536 271.689 455.02 277.033 457.516C279.551 458.691 282.088 459.824 284.62 460.969C286.785 461.947 289.461 463.658 291.837 463.819C291.96 463.827 292 463.673 291.931 463.594C291.033 462.572 289.6 461.978 288.42 461.315C287.215 460.636 285.987 459.998 284.765 459.351C282.217 458.001 279.665 456.662 277.092 455.359C271.946 452.755 266.79 450.17 261.632 447.587C256.373 444.954 251.12 442.302 245.814 439.762C243.315 438.566 240.815 437.373 238.313 436.185C236.957 435.541 235.601 434.898 234.245 434.256C233.659 433.979 233.079 433.68 232.481 433.432C231.685 433.102 231.08 433.17 230.259 432.967C228.921 432.636 228.341 434.338 229.369 435.08C230.215 435.69 230.66 436.212 231.627 436.684ZM250.44 465.579C250.729 464.876 250.123 464.022 249.456 463.846C248.656 463.635 248.014 464.121 247.722 464.83C246.95 466.709 245.849 468.433 244.433 469.89C243.167 471.191 245.158 473.184 246.425 471.882C248.2 470.057 249.476 467.924 250.44 465.579ZM264.28 420.346C265.565 419.062 263.572 417.07 262.287 418.354L258.635 422.006C257.351 423.29 259.344 425.283 260.628 423.998L264.28 420.346ZM301.749 414.392C304.375 415.162 307.437 415.87 309.227 418.11C309.315 418.22 309.461 418.079 309.409 417.97C307.117 413.219 300.545 411.552 295.995 409.888C292.776 408.71 289.474 407.734 286.144 406.862C286.476 403.063 285.558 398.991 285.239 395.211C284.899 391.175 284.621 387.128 284.479 383.079C284.334 378.949 284.298 374.791 284.434 370.66C284.57 366.544 285.104 362.478 285.338 358.376C285.36 357.979 284.808 357.96 284.689 358.288C283.306 362.095 282.715 366.312 282.265 370.326C281.802 374.461 281.648 378.584 281.707 382.743C281.768 387.019 282.017 391.285 282.358 395.548C282.52 397.568 282.708 399.586 282.885 401.605C283.02 403.146 283.083 404.674 283.397 406.166C281.388 405.673 279.375 405.207 277.369 404.754C270.97 403.31 264.544 401.97 258.172 400.408C255.044 399.642 251.96 398.724 248.847 397.909C245.914 397.141 242.819 396.211 239.809 395.868C238.735 395.746 238.598 397.215 239.309 397.714C241.756 399.432 245.006 400.628 247.832 401.59C250.668 402.555 253.616 403.249 256.523 403.964C262.586 405.455 268.706 406.674 274.817 407.944C280.919 409.212 287.033 410.471 293.067 412.036C295.973 412.79 298.869 413.547 301.749 414.392ZM316.137 339.003C317.706 339.924 319.123 337.487 317.559 336.569C315.514 335.369 313.334 334.467 311.136 333.587C309.449 332.912 308.724 335.638 310.387 336.304C312.362 337.095 314.299 337.924 316.137 339.003ZM321.818 443.697C323.392 444.609 324.809 442.173 323.24 441.264C321.037 439.987 318.625 439.135 316.342 438.017C314.718 437.222 313.291 439.654 314.92 440.451C317.202 441.568 319.615 442.42 321.818 443.697ZM324.374 384.267C322.853 385.712 320.823 386.393 318.908 387.152C317.239 387.813 317.971 390.537 319.658 389.869C322.042 388.923 324.472 388.06 326.366 386.26C327.684 385.008 325.688 383.019 324.374 384.267ZM307.546 303.558C305.874 304.214 306.606 306.938 308.295 306.276C310.169 305.541 312.103 304.982 313.977 304.247C315.648 303.591 314.916 300.867 313.227 301.529C311.354 302.264 309.42 302.823 307.546 303.558ZM277.861 271.5C276.084 271.201 275.328 273.917 277.112 274.218C279.325 274.592 281.505 275.029 283.604 275.841C285.3 276.497 286.027 273.771 284.354 273.124C282.254 272.312 280.074 271.874 277.861 271.5ZM268.053 349.553C269.682 348.752 268.252 346.323 266.631 347.12C264.921 347.96 263.151 348.61 261.286 349.007C259.51 349.385 260.266 352.101 262.035 351.724C264.134 351.277 266.131 350.498 268.053 349.553ZM258.789 305.587C257.035 305.107 256.293 307.826 258.04 308.305C261.113 309.147 264.277 309.584 267.373 310.334C269.138 310.761 269.884 308.043 268.122 307.616C265.026 306.867 261.862 306.43 258.789 305.587ZM219.49 291.79C217.706 292.12 218.466 294.836 220.238 294.508C222.125 294.159 224.038 294.153 225.951 294.152C227.767 294.151 227.764 291.333 225.951 291.334C223.778 291.335 221.632 291.394 219.49 291.79ZM91.3197 306.512C95.9236 306.072 100.535 305.72 105.153 305.456C105.368 305.445 105.579 305.431 105.794 305.42C105.818 305.371 105.85 305.325 105.882 305.276C107.389 303.063 108.499 300.852 109.461 298.35C110.38 295.969 111.271 293.514 112.687 291.366C114.302 288.917 116.483 287.002 118.872 285.342C120.322 286.316 121.667 287.458 122.898 288.667C124.193 289.94 126.186 287.948 124.891 286.675C123.797 285.6 122.63 284.607 121.396 283.709C122.82 282.844 124.274 282.03 125.692 281.22C131.008 278.188 136.45 275.384 142.005 272.82C144.587 271.625 147.201 270.565 149.832 269.491C151.248 268.913 152.647 268.17 154.063 267.501C153.96 266.5 154.26 265.38 155.028 264.721C155.595 264.238 156.035 264.059 156.712 263.717C156.863 263.664 156.955 263.633 156.997 263.615C156.965 263.622 156.874 263.65 156.722 263.7C156.363 263.865 156.335 263.816 156.638 263.555C156.655 262.985 157.779 261.78 158.036 261.192C158.931 259.173 159.209 257.038 160.53 255.2C162.351 252.667 165.409 251.709 168.259 252.568C168.554 249.521 168.632 246.341 169.78 243.621C169.812 243.548 169.914 243.516 169.96 243.597C171.157 245.636 171.259 247.908 171.351 250.261C171.439 252.47 171.355 254.728 171.066 256.922C171.249 257.063 171.436 257.197 171.629 257.327C172.538 257.926 173.517 258.388 174.546 258.73C176.504 259.377 178.558 259.659 180.612 259.758C185.913 260.011 191.376 259.476 196.59 258.567C201.863 257.648 209.947 256.267 214.639 253.629C217.736 251.889 220.592 249.764 223.488 247.707C222.438 244.326 222.17 240.691 223.227 237.834C223.354 237.492 223.889 237.429 223.991 237.834C224.654 240.56 224.847 243.301 225.728 245.995C225.742 246.034 225.756 246.077 225.77 246.115C226.045 245.929 226.32 245.745 226.594 245.562C227.229 245.143 228.092 245.457 228.472 246.055C234.556 255.64 244.189 256.19 254.306 257.902C265.378 259.775 276.505 261.797 287.15 265.464C297.33 268.973 307.059 274.081 314.766 281.71C316.511 283.438 318.143 285.278 319.683 287.2C318.193 287.388 316.715 287.68 315.256 288.138C313.529 288.681 314.271 291.4 316.006 290.856C317.88 290.267 319.776 289.975 321.691 289.83C326.927 296.994 331.011 305.117 334.542 313.113C341.314 328.444 345.723 344.77 347.751 361.391C346.638 360.724 345.504 360.088 344.342 359.496C342.727 358.675 341.303 361.107 342.919 361.93C344.714 362.843 346.458 363.849 348.147 364.941C348.885 372.216 349.171 379.539 348.998 386.85C348.586 404.279 346.233 422.219 340.91 438.849C338.3 447.011 334.841 455.106 329.688 462.003C327.356 465.127 324.707 467.945 321.586 470.294C320.075 471.436 318.476 472.454 316.788 473.313C314.615 474.426 311.783 474.793 309.909 476.367C309.292 476.885 308.817 477.568 308.458 478.34C308.665 479.805 308.69 481.274 308.288 482.739C308.162 483.198 307.816 483.571 307.39 483.75C307.383 483.877 307.383 484 307.383 484.12C307.383 484.177 307.299 484.191 307.288 484.135C307.27 484.025 307.253 483.916 307.235 483.804C307.098 483.849 306.953 483.87 306.805 483.87C301.455 483.891 296.097 483.76 290.74 483.578C291.154 482.309 291.603 481.051 292.033 479.782C292.619 478.058 289.896 477.325 289.316 479.033C288.812 480.517 288.285 481.987 287.816 483.476C282.076 483.263 276.337 483.006 270.608 482.817C258.424 482.412 246.243 482.278 234.056 482.021C215.129 481.62 196.064 480.799 177.108 481.602C176.453 480.211 175.719 478.851 175.023 477.479C174.203 475.859 171.772 477.287 172.59 478.901C173.074 479.855 173.574 480.796 174.05 481.748C170.211 481.948 166.376 482.211 162.549 482.571C156.018 483.183 149.55 484.272 143.027 484.948C136.394 485.638 129.905 485.516 123.325 484.42C122.142 484.223 121.444 483.507 121.155 482.62C121.145 482.616 121.138 482.609 121.131 482.599C120.793 482.204 120.476 481.877 120.148 481.591C119.757 481.338 119.334 481.123 118.838 480.932C117.911 480.58 116.946 480.365 115.967 480.221C114.889 480.059 113.797 480.045 112.719 479.911C111.811 479.795 110.922 479.622 110.035 479.411C108.439 479.031 106.924 478.534 105.417 477.875C104.103 477.301 102.916 476.477 101.796 475.578C99.4778 473.884 97.4704 471.721 95.7158 469.474C94.6943 468.16 93.7327 466.797 92.8591 465.377C91.3373 462.918 90.0411 460.364 88.7307 457.79C88.2552 457.027 87.8212 456.245 87.4246 455.447C89.9854 454.693 92.5709 454.078 95.2857 454.034C97.1005 454.005 97.1002 451.187 95.2857 451.216C92.1722 451.266 89.227 451.993 86.3009 452.86C86.1582 452.481 86.0215 452.1 85.8951 451.713C85.5463 450.907 85.2575 450.079 85.018 449.24C84.8774 448.86 84.7361 448.48 84.5952 448.099C84.2782 446.782 83.9612 445.461 83.6407 444.14C83.0031 442.026 82.4997 439.881 82.1295 437.708C81.8195 436.278 81.58 434.837 81.418 433.379C80.9248 429.846 80.5233 426.319 80.4951 422.748C80.5374 420.546 80.6782 418.348 80.9178 416.161C81.0199 414.674 81.1925 413.195 81.425 411.726C81.7279 409.542 82.0273 407.379 82.5311 405.223C82.908 403.765 83.2849 402.307 83.6618 400.848C84.6023 397.809 85.7119 394.828 86.9909 391.915C87.061 391.732 87.4171 391.33 87.6317 391.327C87.7937 391.323 88.0195 391.471 87.9455 391.669C87.9381 391.686 87.9314 391.707 87.924 391.725C87.998 391.559 88.0685 391.39 88.1424 391.225C88.2058 391.07 88.4524 390.76 88.6426 390.764C88.6532 390.764 88.6641 390.764 88.6779 390.767C88.6285 390.732 88.5827 390.686 88.537 390.633C87.2724 389.136 86.4516 387.167 85.5463 385.434C84.7961 384.004 84.088 382.496 83.8837 380.879C83.7044 379.46 83.9471 378.061 84.8383 376.913C85.8528 375.606 87.762 374.993 86.7017 373.105C85.497 370.956 83.7252 369.093 85.49 366.652C86.3882 365.408 87.8113 364.725 88.8681 363.644C90.0833 362.393 90.6614 360.72 90.6293 359.011C90.5553 359.054 90.4567 359.033 90.4215 358.927C89.4 355.841 90.1397 352.453 91.1859 349.448C91.7565 347.817 92.9651 347.37 94.3702 347.289C88.2837 335.4 82.5878 323.321 77.5115 310.964C77.3424 310.559 77.1769 310.155 77.0117 309.749C76.7647 309.143 77.2861 308.337 77.8884 308.203C82.2775 307.241 86.8497 306.935 91.3197 306.512Z" fill="black"/>
<path fill-rule="evenodd" clip-rule="evenodd" d="M138.679 162.195C139.984 151.761 144.082 140.683 148.393 130.956C158.085 110.389 180.275 107.558 200.167 103.317C219.797 100.454 240.583 97.8678 259.917 103.582C270.786 106.25 275.031 119.222 273.315 129.459C272.336 135.838 269.439 141.875 266.968 147.787C262.057 159.927 258.941 172.925 258.936 186.07C259.273 194.66 260.483 204.464 250.633 208.102C241.259 212.774 240.467 225.436 228.73 232.621C223.984 242.255 211.056 243.102 201.751 245.337C195.87 246.465 189.922 247.295 183.959 247.831C166.69 250.049 152.876 245.035 143.837 229.619C137.788 220.238 133.283 209.405 134.396 198.035C135.504 186.062 137.351 174.152 138.679 162.195Z" fill="#EDB98A"/>
<path fill-rule="evenodd" clip-rule="evenodd" d="M200.018 78.3223C199.032 77.2028 197.514 77.5868 196.592 78.472C195.992 78.6491 195.411 78.9126 194.862 79.2614C193.621 79.1018 192.32 79.1018 191.103 79.1465C190.808 78.9806 190.491 78.833 190.147 78.7062C187.686 77.8048 185.507 78.2627 183.71 79.4695C182.844 78.6488 181.752 78.1338 180.356 78.2116C179.11 78.2814 178.222 78.8689 177.461 79.6428C176.702 78.5463 175.475 77.7639 173.947 77.6551C171.811 77.5029 169.757 78.3614 168.055 79.6904C167.064 78.5505 165.712 77.8953 164.205 77.889C163.214 77.7086 162.168 77.7798 161.223 78.0658C159.85 78.4811 158.645 79.2592 157.686 80.2691C156.168 78.8122 154.309 77.7639 152.167 77.9168C149.393 78.1176 147.094 80.161 146.026 82.6761C144.149 83.4295 142.416 84.5043 140.967 86.0365C140.89 86.1172 140.816 86.2017 140.739 86.2866C139.959 86.5751 139.224 86.9841 138.577 87.5227C136.528 89.2315 136.071 91.7042 136.749 94.1274C136.654 94.5152 136.574 94.9097 136.5 95.3039C134.581 95.5963 132.837 96.7062 131.846 98.5133C130.489 100.993 130.756 104.262 132.225 106.629C132.857 107.647 133.659 108.506 134.56 109.256C133.541 111.574 134.03 114.34 135.672 116.214C136.072 116.861 136.563 117.444 137.115 117.972C136.505 120.368 137.59 122.841 139.755 124.121L139.941 124.586C139.972 124.663 140.003 124.74 140.036 124.816C140.06 124.914 140.089 125.01 140.119 125.106C140.17 125.956 140.45 126.791 141.004 127.577C142.14 129.188 143.548 130.239 144.294 132.12L144.369 132.318C144.69 133.208 145.726 133.836 146.609 133.561C141.706 143.65 139.136 154.876 137.372 165.877C136.492 171.366 135.813 176.873 135.262 182.402L134.722 187.907C134.247 192.801 133.824 197.711 133.821 202.621C133.814 213.727 136.985 224.411 143.79 233.249C150.226 241.604 159.334 247.659 169.622 250.044C180.245 252.503 192.706 251.534 202.232 245.905C205.04 244.25 202.58 240.269 199.722 241.601C194.312 244.123 188.815 245.997 182.818 246.416C176.972 246.828 171.113 246.095 165.569 244.179C156.399 241.006 148.595 234.359 143.579 226.081C141.108 222.001 139.319 217.574 138.366 212.896C137.181 207.065 137.359 201.038 137.795 195.133L137.825 194.73C138.686 183.352 139.822 171.904 141.656 160.64C143.278 150.678 145.772 140.919 149.01 131.375C150.278 130.257 151.697 129.331 153.215 128.628C164.332 128.163 175.469 128.298 186.572 129.067C196.041 129.727 205.464 130.843 214.816 132.47L215.817 132.646C217.888 133.016 220.187 133.227 222.138 134.062C223.811 134.781 224.489 136.162 224.911 137.859C225.973 142.153 226.134 146.853 226.313 151.256C226.489 155.56 226.092 159.9 226.436 164.19C226.728 167.779 227.646 171.453 230.3 174.05C231.688 175.409 233.396 176.152 234.999 177.185C236.036 177.851 236.476 178.537 236.342 179.77C236.054 182.468 233.885 185.867 236.321 188.178C236.75 188.583 237.491 188.636 237.913 188.178C238.919 187.083 240.307 186.248 241.499 185.364C241.998 184.998 241.583 184.286 241.017 184.54C240.272 184.875 239.513 185.269 238.736 185.614C240.451 184.198 242.891 183.504 244.922 183.092C245.945 182.887 247.021 182.828 248.086 182.923C248.873 183.3 249.678 183.649 250.483 183.99C251.506 184.42 252.539 184.811 253.58 185.181C257.19 188.129 258.912 192.923 258.16 197.612C257.749 200.201 256.557 203.015 254.311 204.527C251.65 206.316 248.086 205.548 245.211 206.876C242.518 208.119 240.88 210.631 239.653 213.231L239.142 214.313C238.003 216.709 236.833 219.042 235.277 221.223C233.477 223.749 231.273 226.017 228.869 227.965C227.703 228.908 226.459 229.756 225.174 230.529L224.823 230.738C223.522 231.502 222.591 232.231 222.503 233.848C222.475 234.411 222.83 234.925 223.287 235.218C225.255 236.468 227.213 234.904 228.851 233.812C230.619 232.636 232.31 231.312 233.874 229.867C236.848 227.127 239.421 223.872 241.4 220.339C242.908 217.648 243.766 213.861 246.149 211.776C247.604 210.504 249.661 210.494 251.478 210.261C253.169 210.043 254.768 209.691 256.272 208.856C262.392 205.449 264.122 197.203 262.67 190.831C262.424 189.756 262.079 188.71 261.654 187.703C263.932 188.083 266.491 185.723 265.566 183.342C265.496 183.162 265.415 182.993 265.338 182.821C266.839 181.831 268.023 180.33 268.586 178.368C268.874 177.354 268.916 176.329 268.765 175.339C269.493 174.849 270.094 174.176 270.48 173.349C271.69 172.788 272.762 171.95 273.401 170.753C274.287 169.1 274.175 167.579 273.5 166.208C273.595 166.036 273.686 165.86 273.774 165.68C276.252 164.106 277.982 161.393 277.785 158.385C277.721 157.388 277.475 156.49 277.096 155.68C277.127 155.578 277.159 155.472 277.187 155.37C279.261 154.313 280.976 152.577 281.588 150.259C282.2 147.927 281.479 145.602 280.038 143.812C282.147 142.266 283.416 140.107 282.646 136.841C282.333 135.514 281.704 134.305 280.853 133.287C280.857 133.256 280.864 133.224 280.871 133.192L281.068 133.039C283.672 130.98 285.169 128.356 283.571 125.129C282.853 123.678 281.831 122.667 280.628 122.001L280.569 121.811C281.43 119.961 281.722 117.908 281.128 115.749C280.642 113.97 279.493 112.554 278.024 111.613C278.122 110.817 278.108 109.968 277.95 109.049C277.686 107.496 276.916 106.139 275.792 105.178C275.749 104.973 275.697 104.773 275.637 104.572C275.257 103.343 274.547 102.008 273.725 101.017C273.046 100.197 272.287 99.8972 271.359 99.8655C271.415 99.1086 271.377 98.3403 271.222 97.5618C270.748 95.1598 269.222 92.9015 266.962 91.8765C266.034 91.4573 265.057 91.3344 264.115 91.4362C263.313 89.7454 261.749 88.5199 259.826 88.2557C259.077 88.15 258.381 88.1567 257.742 88.2522C257.38 88.0828 257.004 87.9316 256.61 87.7939C256.35 87.7023 256.086 87.6178 255.823 87.5336C254.933 86.4275 253.763 85.543 252.395 85.0115C250.817 84.3951 249.211 84.4581 247.787 84.9759L247.334 84.8808C246.624 83.6479 245.492 82.6933 243.752 82.2601C241.776 81.7704 239.748 82.4538 238.194 83.6976C238.187 83.6976 238.18 83.6976 238.17 83.6937C237.358 81.8726 235.969 80.6045 233.639 80.6925C232.187 80.7489 230.876 81.4714 229.864 82.4999C229.301 82.4291 228.739 82.3657 228.173 82.3027C227.575 81.6014 226.911 80.9465 226.176 80.3583C224.974 79.3927 223.41 79.4706 222.524 80.8299C222.331 81.1258 222.152 81.4252 221.972 81.7246L221.16 81.6683C220.204 80.3755 218.9 79.5019 217.115 79.4318C215.477 79.3646 214.309 80.168 213.42 81.2914C212.696 81.2738 211.968 81.26 211.241 81.2491C210.394 80.2663 209.395 79.3998 208.257 78.6812C207.385 78.1317 206.098 78.3187 205.392 79.0514C204.914 79.5495 204.47 80.0694 204.057 80.6077C202.992 79.4114 201.554 78.6234 200.018 78.3223ZM251.752 190.179C250.111 189.242 247.903 190.257 246.314 191.053C244.377 192.022 242.455 193.483 241.27 195.315C239.657 197.809 243.449 199.824 245.147 197.587C246.191 196.21 247.024 194.822 248.29 193.617C249.446 192.511 251.123 191.771 251.787 190.313C251.812 190.264 251.805 190.207 251.752 190.179ZM250.599 129.645L250.568 129.557C250.101 128.277 252.139 127.725 252.602 128.995C253.303 130.918 252.494 133.009 250.598 133.84C250.073 134.07 249.473 133.991 249.156 133.461C248.89 133.015 249.013 132.243 249.534 132.015C250.601 131.548 250.958 130.723 250.599 129.645ZM268.15 126.066C267.131 125.165 268.627 123.674 269.642 124.572C270.589 125.41 271.291 126.547 271.109 127.856C270.923 129.19 269.919 130.131 268.821 130.797C267.656 131.502 266.595 129.675 267.756 128.972L267.887 128.892C268.374 128.588 268.944 128.171 269.027 127.575C269.114 126.941 268.579 126.446 268.15 126.066ZM262.362 110.154L262.29 110.101C261.194 109.318 262.246 107.484 263.354 108.276C264.37 109.003 265.185 109.947 265.271 111.249C265.354 112.514 264.711 113.611 263.871 114.501C262.937 115.491 261.447 113.995 262.38 113.007C263.289 112.044 263.467 110.993 262.362 110.154Z" fill="black"/>
<path fill-rule="evenodd" clip-rule="evenodd" d="M167.306 216.895C166.765 215.956 165.521 215.085 164.383 215.219C159.282 215.817 159.291 222 161.261 225.61C163.007 228.811 166.621 230.69 170.237 230.416C174.037 230.127 177.275 227.893 178.7 224.339C179.642 221.987 180.077 217.647 177.571 216.067C177.524 216.037 177.447 216.045 177.41 216.087C176.208 217.485 176.161 219.584 175.109 221.141C174.131 222.589 172.61 223.784 170.829 223.969C169.499 224.107 168.154 223.627 167.633 222.433C167.352 221.787 167.384 221.436 167.49 220.992L167.586 220.606C167.919 219.252 168.069 218.222 167.306 216.895ZM165.942 189.777C163.282 191.394 159.229 195.164 162.091 199.173C165.459 202.707 170.309 198.655 172.698 196.822C174.914 195.402 177.404 199.055 175.348 200.713C158.08 213.498 151.072 190.2 164.597 187.876C166.086 187.62 166.639 189.277 165.942 189.777ZM194.032 178.69C192.399 176.241 188.672 176.602 187.773 179.508C187.286 181.083 187.959 182.498 187.924 184.071C187.894 185.399 187.981 186.879 188.389 188.166C189.317 191.099 191.956 193.171 195.077 193.085C198.188 193 200.928 191.03 202.231 188.257C203.539 185.473 203.262 182.592 202.307 179.762C202.261 179.626 202.083 179.56 201.976 179.674C200.847 180.873 200.021 182.139 199.167 183.482L198.291 184.858C197.621 185.895 196.648 187.219 195.398 187.135L195.211 187.117C194.864 187.087 194.917 187.156 194.649 186.683C194.525 186.464 194.547 186.056 194.488 185.798L194.467 185.71L194.478 185.663C194.505 185.538 194.531 185.302 194.552 184.893L194.557 184.802C194.647 182.887 195.189 180.426 194.032 178.69ZM152.645 180.321C152.938 177.188 148.533 176.493 147.069 178.811C146.305 180.02 146.083 181.538 145.914 182.977L145.835 183.66C145.662 185.137 145.593 186.675 146.235 188.053C147.245 190.224 149.442 191.372 151.812 191.19C154.075 191.016 156.14 189.704 157.228 187.712C158.199 185.934 159.164 182.464 157.985 180.61C157.914 180.498 157.772 180.483 157.674 180.57C156.56 181.559 156.379 183.362 155.717 184.65C155.033 185.979 153.998 187.274 152.428 187.476C150.926 187.669 150.352 186.848 150.735 185.416C151.229 183.568 152.459 182.31 152.645 180.321ZM192.842 160.065L192.122 159.789C189.654 158.856 186.266 157.779 184.259 159.786C183.021 161.023 182.786 162.846 183.669 164.356C184.74 166.185 186.66 166.23 188.514 166.5C190.623 166.806 192.768 167.389 194.731 168.219C196.943 169.155 198.996 170.322 201.007 171.625C202.918 172.863 204.822 174.887 207.11 175.268C207.204 175.284 207.31 175.244 207.334 175.141C207.854 172.904 206.41 170.703 205.121 168.958C203.562 166.845 201.673 165.111 199.562 163.556C197.524 162.055 195.195 160.971 192.842 160.065ZM148.012 168.017L147.792 167.979C146.296 167.729 144.939 167.787 143.811 168.972C142.951 169.876 142.619 171.048 143.029 172.244C143.408 173.347 144.255 174.467 145.484 174.698C149.633 175.479 154.229 175.35 158.399 174.759C160.306 174.488 162.231 174.157 164.09 173.635L164.945 173.387C166.496 172.944 168.272 172.481 169.399 171.34C169.804 170.93 169.571 170.343 169.086 170.154C167.12 169.384 164.424 169.793 162.328 169.733C159.889 169.663 157.446 169.48 155.019 169.229C152.647 168.982 150.351 168.446 148.012 168.017Z" fill="black"/>
</svg>
