<svg width="217" height="28" viewBox="0 0 217 28" fill="none" xmlns="http://www.w3.org/2000/svg">
<path d="M22.228 17.388C22.228 20.46 21.22 22.944 19.204 24.84C17.212 26.736 14.56 27.684 11.248 27.684C7.936 27.684 5.296 26.748 3.328 24.876C1.36 22.98 0.376 20.484 0.376 17.388V1.512H6.496V16.884C6.496 18.396 6.892 19.656 7.684 20.664C8.476 21.648 9.676 22.14 11.284 22.14C12.916 22.14 14.116 21.648 14.884 20.664C15.676 19.656 16.072 18.396 16.072 16.884V1.512H22.228V17.388ZM62.4781 1.512L55.2061 27H49.1221L44.0821 9.756H43.9741L38.9341 27H32.8141L25.5781 1.512H32.2021L36.2341 18.468H36.3421L40.8781 1.512H47.2861L51.8581 18.468H51.9661L56.0701 1.512H62.4781ZM92.2663 14.148C92.2663 18.156 90.9583 21.42 88.3423 23.94C85.7263 26.436 82.4023 27.684 78.3703 27.684C74.3623 27.684 71.0503 26.436 68.4343 23.94C65.8183 21.42 64.5103 18.156 64.5103 14.148C64.5103 10.116 65.8063 6.888 68.3983 4.464C71.0143 2.04 74.3383 0.827998 78.3703 0.827998C82.4263 0.827998 85.7503 2.04 88.3423 4.464C90.9583 6.888 92.2663 10.116 92.2663 14.148ZM85.6783 14.148C85.6783 11.892 84.9943 10.032 83.6263 8.568C82.2583 7.104 80.5063 6.372 78.3703 6.372C76.2343 6.372 74.4823 7.104 73.1143 8.568C71.7703 10.032 71.0983 11.892 71.0983 14.148C71.0983 16.452 71.7703 18.348 73.1143 19.836C74.4823 21.324 76.2343 22.068 78.3703 22.068C80.5063 22.068 82.2583 21.324 83.6263 19.836C84.9943 18.348 85.6783 16.452 85.6783 14.148ZM118.163 27H110.963L105.455 16.884H103.367V27H97.3194V1.512H107.039C108.335 1.512 109.535 1.644 110.639 1.908C111.743 2.172 112.775 2.592 113.735 3.168C114.695 3.744 115.439 4.548 115.967 5.58C116.519 6.612 116.795 7.824 116.795 9.216C116.795 10.896 116.327 12.336 115.391 13.536C114.455 14.736 113.159 15.588 111.503 16.092L118.163 27ZM110.711 9.324C110.711 7.428 109.343 6.48 106.607 6.48H103.331V12.42H106.247C109.223 12.42 110.711 11.388 110.711 9.324ZM145.987 14.184C145.987 16.344 145.579 18.264 144.763 19.944C143.947 21.624 142.843 22.968 141.451 23.976C140.083 24.984 138.571 25.74 136.915 26.244C135.259 26.748 133.519 27 131.695 27H122.191V1.512H131.407C132.919 1.512 134.347 1.644 135.691 1.908C137.059 2.148 138.379 2.58 139.651 3.204C140.923 3.828 142.015 4.608 142.927 5.544C143.863 6.48 144.607 7.692 145.159 9.18C145.711 10.644 145.987 12.312 145.987 14.184ZM139.579 14.184C139.579 12.816 139.351 11.64 138.895 10.656C138.439 9.648 137.803 8.868 136.987 8.316C136.195 7.764 135.319 7.368 134.359 7.128C133.423 6.888 132.391 6.768 131.263 6.768H128.203V21.672H131.119C133.591 21.672 135.619 21.084 137.203 19.908C138.787 18.732 139.579 16.824 139.579 14.184ZM168.457 3.996L164.533 8.136C164.029 7.488 163.345 6.96 162.481 6.552C161.641 6.144 160.813 5.94 159.997 5.94C159.037 5.94 158.197 6.144 157.477 6.552C156.781 6.936 156.433 7.584 156.433 8.496C156.433 8.904 156.517 9.264 156.685 9.576C156.853 9.864 157.129 10.128 157.513 10.368C157.921 10.584 158.317 10.776 158.701 10.944C159.085 11.088 159.637 11.268 160.357 11.484C161.293 11.796 162.025 12.048 162.553 12.24C163.081 12.432 163.753 12.756 164.569 13.212C165.409 13.644 166.057 14.1 166.513 14.58C166.969 15.06 167.377 15.708 167.737 16.524C168.097 17.316 168.277 18.192 168.277 19.152C168.277 21.912 167.329 24.024 165.433 25.488C163.561 26.928 161.257 27.648 158.521 27.648C156.673 27.648 154.897 27.324 153.193 26.676C151.489 26.028 150.085 25.128 148.981 23.976L153.013 19.872C153.637 20.664 154.453 21.312 155.461 21.816C156.493 22.32 157.513 22.572 158.521 22.572C159.553 22.572 160.393 22.356 161.041 21.924C161.713 21.468 162.049 20.76 162.049 19.8C162.049 19.416 161.953 19.08 161.761 18.792C161.593 18.48 161.401 18.228 161.185 18.036C160.969 17.82 160.585 17.592 160.033 17.352C159.481 17.112 159.013 16.932 158.629 16.812C158.245 16.668 157.621 16.452 156.757 16.164C155.821 15.852 155.017 15.528 154.345 15.192C153.673 14.856 153.001 14.412 152.329 13.86C151.657 13.308 151.141 12.612 150.781 11.772C150.421 10.932 150.241 9.96 150.241 8.856C150.241 7.512 150.529 6.312 151.105 5.256C151.681 4.176 152.449 3.336 153.409 2.736C154.369 2.112 155.413 1.644 156.541 1.332C157.693 1.02 158.881 0.864 160.105 0.864C161.593 0.864 163.081 1.14 164.569 1.692C166.081 2.22 167.377 2.988 168.457 3.996Z" fill="#1A1A1A"/>
<path d="M22.228 17.388C22.228 20.46 21.22 22.944 19.204 24.84C17.212 26.736 14.56 27.684 11.248 27.684C7.936 27.684 5.296 26.748 3.328 24.876C1.36 22.98 0.376 20.484 0.376 17.388V1.512H6.496V16.884C6.496 18.396 6.892 19.656 7.684 20.664C8.476 21.648 9.676 22.14 11.284 22.14C12.916 22.14 14.116 21.648 14.884 20.664C15.676 19.656 16.072 18.396 16.072 16.884V1.512H22.228V17.388ZM62.4781 1.512L55.2061 27H49.1221L44.0821 9.756H43.9741L38.9341 27H32.8141L25.5781 1.512H32.2021L36.2341 18.468H36.3421L40.8781 1.512H47.2861L51.8581 18.468H51.9661L56.0701 1.512H62.4781ZM92.2663 14.148C92.2663 18.156 90.9583 21.42 88.3423 23.94C85.7263 26.436 82.4023 27.684 78.3703 27.684C74.3623 27.684 71.0503 26.436 68.4343 23.94C65.8183 21.42 64.5103 18.156 64.5103 14.148C64.5103 10.116 65.8063 6.888 68.3983 4.464C71.0143 2.04 74.3383 0.827998 78.3703 0.827998C82.4263 0.827998 85.7503 2.04 88.3423 4.464C90.9583 6.888 92.2663 10.116 92.2663 14.148ZM85.6783 14.148C85.6783 11.892 84.9943 10.032 83.6263 8.568C82.2583 7.104 80.5063 6.372 78.3703 6.372C76.2343 6.372 74.4823 7.104 73.1143 8.568C71.7703 10.032 71.0983 11.892 71.0983 14.148C71.0983 16.452 71.7703 18.348 73.1143 19.836C74.4823 21.324 76.2343 22.068 78.3703 22.068C80.5063 22.068 82.2583 21.324 83.6263 19.836C84.9943 18.348 85.6783 16.452 85.6783 14.148ZM118.163 27H110.963L105.455 16.884H103.367V27H97.3194V1.512H107.039C108.335 1.512 109.535 1.644 110.639 1.908C111.743 2.172 112.775 2.592 113.735 3.168C114.695 3.744 115.439 4.548 115.967 5.58C116.519 6.612 116.795 7.824 116.795 9.216C116.795 10.896 116.327 12.336 115.391 13.536C114.455 14.736 113.159 15.588 111.503 16.092L118.163 27ZM110.711 9.324C110.711 7.428 109.343 6.48 106.607 6.48H103.331V12.42H106.247C109.223 12.42 110.711 11.388 110.711 9.324ZM145.987 14.184C145.987 16.344 145.579 18.264 144.763 19.944C143.947 21.624 142.843 22.968 141.451 23.976C140.083 24.984 138.571 25.74 136.915 26.244C135.259 26.748 133.519 27 131.695 27H122.191V1.512H131.407C132.919 1.512 134.347 1.644 135.691 1.908C137.059 2.148 138.379 2.58 139.651 3.204C140.923 3.828 142.015 4.608 142.927 5.544C143.863 6.48 144.607 7.692 145.159 9.18C145.711 10.644 145.987 12.312 145.987 14.184ZM139.579 14.184C139.579 12.816 139.351 11.64 138.895 10.656C138.439 9.648 137.803 8.868 136.987 8.316C136.195 7.764 135.319 7.368 134.359 7.128C133.423 6.888 132.391 6.768 131.263 6.768H128.203V21.672H131.119C133.591 21.672 135.619 21.084 137.203 19.908C138.787 18.732 139.579 16.824 139.579 14.184ZM168.457 3.996L164.533 8.136C164.029 7.488 163.345 6.96 162.481 6.552C161.641 6.144 160.813 5.94 159.997 5.94C159.037 5.94 158.197 6.144 157.477 6.552C156.781 6.936 156.433 7.584 156.433 8.496C156.433 8.904 156.517 9.264 156.685 9.576C156.853 9.864 157.129 10.128 157.513 10.368C157.921 10.584 158.317 10.776 158.701 10.944C159.085 11.088 159.637 11.268 160.357 11.484C161.293 11.796 162.025 12.048 162.553 12.24C163.081 12.432 163.753 12.756 164.569 13.212C165.409 13.644 166.057 14.1 166.513 14.58C166.969 15.06 167.377 15.708 167.737 16.524C168.097 17.316 168.277 18.192 168.277 19.152C168.277 21.912 167.329 24.024 165.433 25.488C163.561 26.928 161.257 27.648 158.521 27.648C156.673 27.648 154.897 27.324 153.193 26.676C151.489 26.028 150.085 25.128 148.981 23.976L153.013 19.872C153.637 20.664 154.453 21.312 155.461 21.816C156.493 22.32 157.513 22.572 158.521 22.572C159.553 22.572 160.393 22.356 161.041 21.924C161.713 21.468 162.049 20.76 162.049 19.8C162.049 19.416 161.953 19.08 161.761 18.792C161.593 18.48 161.401 18.228 161.185 18.036C160.969 17.82 160.585 17.592 160.033 17.352C159.481 17.112 159.013 16.932 158.629 16.812C158.245 16.668 157.621 16.452 156.757 16.164C155.821 15.852 155.017 15.528 154.345 15.192C153.673 14.856 153.001 14.412 152.329 13.86C151.657 13.308 151.141 12.612 150.781 11.772C150.421 10.932 150.241 9.96 150.241 8.856C150.241 7.512 150.529 6.312 151.105 5.256C151.681 4.176 152.449 3.336 153.409 2.736C154.369 2.112 155.413 1.644 156.541 1.332C157.693 1.02 158.881 0.864 160.105 0.864C161.593 0.864 163.081 1.14 164.569 1.692C166.081 2.22 167.377 2.988 168.457 3.996Z" fill="#F2ECE7"/>
<path d="M206.826 27H199.986L198.006 21.996H188.142L186.27 27H179.574L190.266 1.512H196.242L206.826 27ZM196.314 17.064L193.146 8.316L189.906 17.064H196.314ZM216.125 27H209.933V1.512H216.125V27Z" fill="#DDFF53"/>
</svg>
