<svg width="56" height="56" viewBox="0 0 56 56" fill="none" xmlns="http://www.w3.org/2000/svg">
<path d="M28.4377 9.06499L34.4227 20.9387C34.4578 21.0092 34.5096 21.07 34.5737 21.1158C34.6378 21.1615 34.7121 21.1909 34.7902 21.2012L48.1252 23.1C48.2213 23.1118 48.312 23.1513 48.3861 23.2138C48.4602 23.2762 48.5144 23.3589 48.5423 23.4517C48.5701 23.5445 48.5703 23.6434 48.5429 23.7364C48.5154 23.8293 48.4615 23.9122 48.3877 23.975L38.7627 33.1625C38.704 33.2193 38.6604 33.2899 38.636 33.3678C38.6115 33.4458 38.607 33.5286 38.6227 33.6087L40.8977 46.6287C40.9147 46.7192 40.906 46.8126 40.8724 46.8983C40.8388 46.9841 40.7818 47.0586 40.7078 47.1134C40.6339 47.1682 40.546 47.201 40.4542 47.2081C40.3624 47.2153 40.2705 47.1964 40.1889 47.1537L28.2277 41.0287C28.1569 40.994 28.079 40.9759 28.0002 40.9759C27.9213 40.9759 27.8435 40.994 27.7727 41.0287L15.8114 47.1537C15.7299 47.1964 15.6379 47.2153 15.5462 47.2081C15.4544 47.201 15.3665 47.1682 15.2925 47.1134C15.2185 47.0586 15.1615 46.9841 15.1279 46.8983C15.0943 46.8126 15.0856 46.7192 15.1027 46.6287L17.3777 33.6087C17.3934 33.5286 17.3888 33.4458 17.3643 33.3678C17.3399 33.2899 17.2963 33.2193 17.2377 33.1625L7.61266 23.9575C7.53885 23.8947 7.48491 23.8118 7.45746 23.7189C7.43 23.6259 7.4302 23.527 7.45805 23.4342C7.48589 23.3414 7.54016 23.2587 7.61424 23.1963C7.68832 23.1338 7.77898 23.0943 7.87516 23.0825L21.2277 21.1837C21.3057 21.1734 21.38 21.144 21.4441 21.0983C21.5082 21.0525 21.5601 20.9917 21.5952 20.9212L27.5627 9.06499C27.6035 8.984 27.666 8.91594 27.7433 8.86839C27.8205 8.82083 27.9095 8.79565 28.0002 8.79565C28.0909 8.79565 28.1798 8.82083 28.257 8.86839C28.3343 8.91594 28.3968 8.984 28.4377 9.06499Z" fill="#FFC107" stroke="#1A1A1A" stroke-width="2"/>
</svg>
