<svg width="235" height="312" viewBox="0 0 235 312" fill="none" xmlns="http://www.w3.org/2000/svg">
<path fill-rule="evenodd" clip-rule="evenodd" d="M203.966 207.824C201.465 198.122 199.164 194.009 194.721 190.637C190.565 187.483 184.498 184.834 175.645 182.9C166.425 181.287 166.164 176.495 163.852 168.794C163.177 166.478 159.835 165.862 158.393 167.531C158.189 167.311 157.977 167.11 157.758 166.929C157.954 165.825 156.346 162.66 156.4 161.603C156.961 150.578 153.355 145.042 144.354 142.984C142.396 142.536 129.1 142.272 127.191 142.8C118.847 145.107 110.633 152.431 111.89 161.254C109.271 164.677 106.708 166.766 102.667 167.869C96.3743 168.668 99.5354 257.816 110.464 311.225C115.154 334.141 227.277 295.138 222.21 283.661C222.928 281.557 221.619 279.245 222.21 277.072C222.638 275.5 223.733 274.85 224.284 273.293C225.06 271.102 224.216 268.163 223.343 265.928C222.985 264.814 224.001 263.615 224.284 262.478C225.624 257.115 222.556 257.588 220.344 254.003C220.377 253.992 220.952 251.433 220.949 251.446C221.288 249.619 220.439 247.278 219.699 245.753C219.199 244.722 218.128 244.077 217.063 244.195C218.135 240.555 219.491 237.527 220.949 234.02C223.528 227.839 225.98 221.373 229.683 215.778C231.2 213.487 229.975 211.38 227.521 211.224C219.578 210.719 211.722 209.576 203.966 207.824Z" fill="#EDB98A"/>
<path fill-rule="evenodd" clip-rule="evenodd" d="M191.566 208.573L173.436 239.258C173.436 239.258 177.737 239.687 179.477 240.523C181.218 241.36 189.21 251.52 189.21 251.52L190.48 257.115L187.471 261.626L188.645 264.458C188.645 264.458 189.482 262.54 191.566 261.05C193.651 259.561 198.248 257.115 198.248 257.115C198.248 257.115 196.72 256.298 196.72 255.339C196.72 254.379 195.374 250.286 198.248 248.739C201.121 247.193 215.968 243.574 215.968 243.574L231.016 211.832L191.566 208.573Z" fill="#DB79E2"/>
<path fill-rule="evenodd" clip-rule="evenodd" d="M110.686 168.077L168.256 178.182L194.721 190.637L199.041 193.966L173.436 239.258L133.899 246.472L123.826 272.636L125.883 302.129L190.2 294.46L217.944 291.163L224.466 317.494L223.288 328.325L221.574 333.818L152.796 352.388C152.796 352.388 117.773 348.993 111.564 348.993C105.356 348.993 59.8368 353.514 59.8368 353.514L49.305 352.388C49.305 352.388 26.0033 327.828 22.3892 319.087C18.7751 310.346 10.96 257.211 10.96 257.211L11.8205 249.047L31.9526 197.235C31.9526 197.235 34.641 194.794 38.0303 190.637C41.4197 186.481 110.686 168.077 110.686 168.077Z" fill="#DB79E2"/>
<path fill-rule="evenodd" clip-rule="evenodd" d="M214.883 242.92C209.68 243.184 204.471 244.421 199.765 246.663C197.84 247.581 196.095 248.907 195.584 251.088C195.326 252.202 195.389 253.353 195.526 254.478C195.63 255.331 195.656 256.418 196.396 256.995C196.522 257.093 196.657 257.168 196.798 257.222C195.062 258.006 193.408 258.947 191.939 259.917C190.596 260.804 189.216 262.17 188.596 263.712C188.545 263.536 188.493 263.373 188.441 263.218C187.385 260.095 185.758 257.538 183.195 255.819C182.904 254.758 179.781 250.193 176.88 250.365C173.703 250.552 171.148 250.784 168.275 252.245C167.228 252.222 166.183 252.237 165.151 252.282C164.973 252.288 164.981 252.53 165.151 252.549C165.989 252.656 166.826 252.773 167.664 252.911C169.656 253.23 171.642 253.634 173.584 254.137C175.915 254.74 178.325 255.345 180.504 256.398C184.728 258.445 187.342 263.795 186.805 268.45C186.717 269.214 186.421 271.521 185.362 271.283C184.467 271.082 184.111 269.214 183.798 268.522C182.96 266.685 181.451 265.485 179.64 264.673C177.513 263.717 175.238 263.071 173.033 262.32C171.785 261.892 170.537 261.464 169.286 261.039C168.006 260.601 166.789 259.995 165.426 260.302C164.602 260.488 164.508 261.47 164.97 262.033C165.673 262.891 166.717 263.143 167.73 263.496C169.068 263.961 170.402 264.426 171.737 264.891C173.8 265.609 175.961 266.214 177.972 267.093L177.909 267.236C177.745 267.19 177.553 267.354 177.585 267.555C177.886 269.412 178.305 271.559 177.84 273.419C177.473 274.894 176.179 276.527 174.497 276.094C174.761 275.852 174.859 275.436 174.681 275.052C174.015 273.628 165.291 268.008 164.514 270.095C164.488 270.169 164.568 270.224 164.631 270.213C165.294 270.075 166.405 271.206 166.935 271.564C167.701 272.081 168.479 272.586 169.237 273.117C170.066 273.697 170.876 274.306 171.665 274.934C172.285 275.428 172.752 275.941 173.464 276.191C173.091 276.369 172.795 276.699 172.669 277.121C172.348 278.22 171.728 279.153 170.652 279.639C169.524 280.143 168.253 279.825 167.065 279.948C165.446 280.112 164.034 280.881 162.855 281.981C160.378 284.294 159.136 288.37 155.672 289.463C153.603 290.115 151.307 289.704 149.212 289.408C146.873 289.078 144.595 288.817 142.239 289.162C139.983 289.492 137.851 290.272 135.79 291.225C133.859 292.118 131.724 293.128 130.011 294.46C129.658 293.372 129.302 292.296 129.032 291.185C128.395 288.559 128.051 285.884 127.967 283.186C127.89 280.617 128.034 278.037 128.254 275.479C128.364 274.202 128.536 272.931 128.645 271.653C128.673 271.332 128.731 270.987 128.774 270.643C131.833 268.838 135.047 267.455 138.287 266.031C138.296 266.028 138.304 266.022 138.313 266.019C138.413 265.973 138.511 265.93 138.611 265.887C138.609 265.881 138.606 265.876 138.6 265.87C138.97 265.643 139.228 265.342 139.383 265.003C144.052 261.906 147.955 257.679 150.865 252.747C152.085 250.681 153.258 248.537 154.854 246.726C156.553 244.794 158.57 243.646 161.067 243.049C163.985 242.349 166.993 241.93 169.983 241.691C171.616 241.563 173.441 241.361 175.22 241.37C176.46 241.379 177.674 241.485 178.787 241.792C180.438 242.245 181.402 243.5 182.438 244.768C183.428 245.986 184.412 247.205 185.336 248.474C186.211 249.676 187.038 250.919 187.755 252.222C188.186 253.003 188.585 253.807 188.92 254.636C189.038 254.929 189.193 255.262 189.265 255.566C189.337 255.873 189.205 256.198 189.549 256.198C188.128 256.217 187.184 259.76 188.596 259.677C190.581 259.561 191.579 257.181 191.19 255.069C190.496 251.302 186.749 246.751 186.007 245.787C184.369 243.658 182.679 240.879 180.056 239.889C180.019 239.875 179.978 239.861 179.941 239.849C180.704 239.125 181.307 238.259 181.884 237.378C182.478 236.471 183.186 235.432 183.382 234.355C183.505 233.67 182.653 233.279 182.248 233.879C181.66 234.754 181.376 235.862 180.937 236.824C180.489 237.799 179.944 238.721 179.514 239.705C178.478 239.387 177.358 239.241 176.219 239.192C177.657 237.246 180.113 233.491 180.409 233.009C181.769 230.776 183.063 228.475 184.3 226.169C185.637 223.672 186.783 221.072 188.062 218.546C188.788 217.114 189.52 215.67 190.327 214.281C190.605 213.805 190.903 213.328 191.242 212.895C191.308 212.809 191.391 212.737 191.469 212.657C191.558 212.608 191.65 212.553 191.701 212.525C192.166 212.258 192.33 211.638 192.657 211.244C193.179 210.61 193.793 210.536 194.58 210.527C196.255 210.51 197.937 210.576 199.61 210.622C202.07 210.691 204.526 210.788 206.982 210.917C207.726 210.957 208.466 210.998 209.209 211.044C212.782 211.256 216.352 211.534 219.913 211.876C223.064 212.177 226.215 212.668 229.369 212.904C225.099 223.05 220.364 233.012 215.003 242.627C214.949 242.725 214.908 242.822 214.883 242.92ZM191.19 269.059C190.502 269.375 189.833 269.768 189.21 270.216C189.314 269.518 189.339 268.783 189.311 268.046C189.824 268.597 190.482 268.912 191.19 269.059ZM220.591 251.605C220.542 251.611 220.496 251.637 220.473 251.685C219.52 253.652 219.919 255.847 221.475 257.389C222.29 258.192 224.066 259.099 224.008 260.419C223.959 261.487 222.797 262.383 222.301 263.264C221.839 264.085 221.667 264.986 222.037 265.876C222.511 267.015 223.833 267.469 224.287 268.588C224.861 270.009 223.928 271.723 223.274 272.959C222.665 274.104 221.879 275.25 221.357 276.461C217.859 278.272 209.921 281.561 208.965 281.745C207.8 281.972 206.632 282.187 205.461 282.388C203.214 282.778 200.962 283.14 198.703 283.458C197.418 283.639 196.129 283.817 194.841 283.958C193.716 284.078 192.447 284.242 191.541 283.396C189.712 281.685 190.737 278.817 191.893 277.089C191.916 277.055 191.916 277.023 191.908 276.995C192.998 276.739 194.086 276.441 195.171 276.231C197.257 275.829 199.358 275.491 201.461 275.19C205.783 274.572 210.133 274.165 214.478 273.755C215.554 273.651 215.566 271.958 214.478 272.058C208.236 272.63 201.963 273.172 195.805 274.375C194.261 274.673 192.728 275.011 191.205 275.393C190.484 275.571 189.712 275.85 188.958 275.858C188.912 275.858 188.866 275.858 188.82 275.855C187.342 275.81 187.127 274.544 187.939 273.491C188.039 273.361 188.143 273.232 188.249 273.109C189.684 271.398 191.471 270.256 193.314 269.073C195.377 268.792 197.435 268.166 199.455 267.707C204.443 266.57 209.43 265.434 214.421 264.3C215.399 264.076 214.983 262.572 214.005 262.793C210.217 263.652 206.429 264.509 202.64 265.368L197.096 266.625C195.989 266.874 194.605 267.377 193.302 267.558C192.66 267.647 192.037 267.658 191.475 267.526C189.658 267.096 189.566 264.825 190.35 263.476C191.228 261.961 192.886 261.014 194.359 260.155C196.91 258.666 199.625 257.595 202.276 256.361C202.747 256.258 203.217 256.154 203.688 256.051C206.426 255.448 209.554 255.153 212.131 254.048C212.903 253.72 212.481 252.503 211.718 252.521C209.717 252.564 207.625 253.276 205.671 253.697C203.556 254.157 201.438 254.613 199.323 255.069C199.111 255.115 197.854 255.517 197.664 255.428C197.544 255.371 197.501 254.952 197.461 254.676C197.331 253.769 197.237 252.817 197.378 251.906C197.687 249.866 199.389 248.907 201.111 248.124C204.945 246.381 209.149 245.291 213.333 244.854C214.297 244.754 215.262 244.691 216.232 244.659C217.371 244.625 218.309 244.424 218.886 245.546C219.793 247.314 220.292 249.588 220.591 251.605ZM215.266 315.709C214.431 312.82 214.658 309.734 214.086 306.787C213.791 305.266 213.387 303.758 212.947 302.273C212.592 301.074 211.999 299.798 211.932 298.547C211.928 298.463 212.027 298.415 212.094 298.454C213.273 299.129 214.178 300.588 214.85 301.734C215.655 303.104 216.269 304.539 216.765 306.048C217.753 309.054 218.564 312.68 217.29 315.709C216.911 316.611 215.579 316.792 215.266 315.709ZM182.664 337.585C181.419 336.716 180.512 335.501 179.456 334.429C178.418 333.375 180.041 331.751 181.08 332.806C181.98 333.72 182.762 334.862 183.822 335.602C184.333 335.958 184.569 336.601 184.234 337.173C183.939 337.678 183.173 337.94 182.664 337.585ZM175.721 304.191C177.994 303.208 180.229 302.138 182.607 301.43C184.029 301.007 184.631 303.223 183.218 303.644C181.027 304.296 178.973 305.269 176.88 306.173C175.537 306.754 174.369 304.776 175.721 304.191ZM151.722 303.503C151.166 302.132 153.388 301.541 153.936 302.893C154.566 304.449 155.289 305.966 155.919 307.522C156.475 308.893 154.253 309.484 153.706 308.132C153.075 306.576 152.352 305.06 151.722 303.503ZM128.034 330.89C127.664 331.384 127.046 331.651 126.463 331.302C125.975 331.01 125.677 330.231 126.052 329.732C127.146 328.273 128.254 326.832 129.537 325.531C130.577 324.477 132.199 326.102 131.16 327.155C130.015 328.316 129.011 329.588 128.034 330.89ZM124.647 177.223C125.701 177.943 126.624 178.817 127.524 179.717C128.571 180.763 126.947 182.387 125.9 181.341C125.142 180.582 124.377 179.812 123.488 179.206C122.975 178.855 122.744 178.203 123.076 177.635C123.374 177.126 124.135 176.873 124.647 177.223ZM159.11 214.173C158.514 215.366 157.977 216.536 157.944 217.892C157.907 219.369 155.612 219.37 155.648 217.892C155.692 216.117 156.346 214.578 157.127 213.014C157.788 211.69 159.767 212.854 159.11 214.173ZM171.754 184.497C172.988 183.674 174.137 185.664 172.913 186.48C171.921 187.141 170.929 187.802 169.938 188.464C168.704 189.286 167.556 187.297 168.779 186.481C169.771 185.82 170.762 185.158 171.754 184.497ZM116.909 236.382C116.699 237.842 114.487 237.217 114.695 235.772C115.018 233.539 115.412 231.335 116.018 229.159C116.415 227.735 118.629 228.344 118.232 229.77C117.626 231.945 117.232 234.149 116.909 236.382ZM108.86 262.685C107.383 262.654 107.382 260.357 108.86 260.389C110.197 260.417 111.512 260.769 112.802 261.091C114.237 261.45 113.625 263.663 112.192 263.305C111.101 263.033 109.991 262.709 108.86 262.685ZM105.889 315.669C105.381 315.916 104.86 316.138 104.347 316.373C103.32 316.843 102.293 317.313 101.266 317.785C99.1267 318.767 96.9887 319.752 94.8528 320.741C90.5769 322.721 86.268 324.63 81.9818 326.588C77.611 328.586 73.2516 330.609 68.8976 332.643C66.8464 333.601 64.7796 334.523 62.7168 335.456C60.9531 336.254 58.773 337.648 56.8368 337.779C56.7372 337.786 56.7039 337.66 56.7607 337.595C57.4922 336.763 58.6591 336.279 59.6204 335.738C60.6024 335.186 61.6028 334.666 62.5986 334.139C64.6746 333.038 66.7531 331.947 68.8491 330.886C73.0418 328.764 77.2425 326.657 81.444 324.553C85.7291 322.407 90.0087 320.247 94.3314 318.177C96.3666 317.202 98.4038 316.231 100.442 315.262C101.546 314.737 102.651 314.213 103.756 313.69C104.233 313.465 104.706 313.221 105.194 313.019C105.842 312.75 106.335 312.805 107.003 312.64C108.094 312.371 108.566 313.758 107.729 314.361C107.039 314.859 106.677 315.284 105.889 315.669ZM90.5626 339.213C90.327 338.64 90.8203 337.944 91.3644 337.801C92.0161 337.629 92.5387 338.025 92.7766 338.603C93.4059 340.134 94.3024 341.539 95.4563 342.725C96.4877 343.786 94.8651 345.41 93.8329 344.349C92.3869 342.862 91.348 341.123 90.5626 339.213ZM79.2872 302.357C78.2406 301.31 79.8643 299.687 80.9106 300.733L83.8859 303.709C84.9325 304.756 83.3085 306.379 82.2625 305.332L79.2872 302.357ZM48.762 297.505C46.6229 298.133 44.1279 298.709 42.6696 300.535C42.5984 300.624 42.4787 300.509 42.5215 300.42C44.3885 296.549 49.7428 295.191 53.4499 293.835C56.072 292.876 58.7624 292.08 61.4754 291.369C61.2042 288.274 61.9521 284.956 62.2121 281.876C62.4896 278.587 62.7154 275.29 62.8313 271.991C62.9499 268.626 62.9786 265.238 62.8678 261.871C62.7576 258.518 62.3222 255.205 62.1317 251.862C62.1133 251.539 62.5633 251.524 62.6603 251.791C63.787 254.893 64.2682 258.328 64.635 261.599C65.0126 264.968 65.138 268.328 65.0898 271.717C65.0399 275.201 64.8373 278.677 64.5592 282.15C64.4275 283.797 64.2745 285.441 64.1302 287.086C64.02 288.341 63.9689 289.587 63.7129 290.802C65.3492 290.401 66.9893 290.021 68.6241 289.651C73.8373 288.475 79.0722 287.383 84.2635 286.111C86.8119 285.487 89.3237 284.739 91.8605 284.074C94.2493 283.449 96.7706 282.691 99.2231 282.412C100.098 282.312 100.21 283.509 99.6303 283.916C97.637 285.315 94.9897 286.29 92.6873 287.074C90.3766 287.86 87.9747 288.426 85.6063 289.008C80.6672 290.223 75.6814 291.216 70.703 292.251C65.7315 293.285 60.7505 294.31 55.835 295.586C53.4677 296.2 51.1085 296.816 48.762 297.505ZM37.04 236.076C35.7619 236.827 34.6079 234.842 35.8815 234.094C37.548 233.116 39.324 232.381 41.1145 231.664C42.4885 231.114 43.0796 233.335 41.7248 233.878C40.1158 234.522 38.5374 235.198 37.04 236.076ZM32.4117 321.383C31.1301 322.126 29.9754 320.141 31.2532 319.4C33.048 318.36 35.0134 317.666 36.8733 316.755C38.1965 316.107 39.3588 318.088 38.0318 318.738C36.1722 319.648 34.2065 320.342 32.4117 321.383ZM30.3301 272.959C31.5692 274.136 33.223 274.691 34.7824 275.309C36.1421 275.848 35.5458 278.068 34.172 277.523C32.2292 276.753 30.2503 276.049 28.7067 274.582C27.6328 273.562 29.2591 271.942 30.3301 272.959ZM44.039 207.196C45.4012 207.73 44.8046 209.95 43.4286 209.41C41.9025 208.811 40.3264 208.356 38.8003 207.757C37.4383 207.222 38.0347 205.003 39.4107 205.543C40.9368 206.141 42.5129 206.597 44.039 207.196ZM68.223 181.075C69.6705 180.831 70.2869 183.044 68.8334 183.289C67.03 183.594 65.2542 183.95 63.5439 184.612C62.1627 185.146 61.5701 182.925 62.9335 182.398C64.6441 181.736 66.4199 181.379 68.223 181.075ZM76.2137 244.673C74.8865 244.021 76.051 242.041 77.3722 242.691C78.7646 243.375 80.2072 243.905 81.7264 244.228C83.1731 244.536 82.5569 246.75 81.116 246.442C79.4063 246.078 77.7794 245.443 76.2137 244.673ZM83.7608 208.849C85.1899 208.458 85.7943 210.673 84.3712 211.063C81.8673 211.749 79.2895 212.106 76.7673 212.717C75.3298 213.064 74.7217 210.85 76.1569 210.503C78.6791 209.892 81.2572 209.536 83.7608 208.849ZM115.777 197.607C117.23 197.876 116.611 200.089 115.167 199.821C113.63 199.537 112.072 199.532 110.513 199.532C109.034 199.531 109.036 197.235 110.513 197.235C112.284 197.236 114.032 197.284 115.777 197.607ZM220.195 209.603C216.444 209.244 212.687 208.957 208.925 208.742C208.75 208.733 208.578 208.722 208.403 208.713C208.383 208.673 208.357 208.635 208.331 208.595C207.103 206.793 206.199 204.991 205.416 202.953C204.667 201.012 203.941 199.012 202.787 197.261C201.471 195.266 199.695 193.706 197.748 192.353C196.567 193.147 195.471 194.077 194.468 195.063C193.413 196.1 191.79 194.476 192.845 193.439C193.736 192.563 194.687 191.754 195.692 191.023C194.532 190.317 193.347 189.654 192.192 188.995C187.861 186.524 183.428 184.239 178.902 182.15C176.799 181.176 174.669 180.312 172.526 179.437C171.372 178.967 170.233 178.361 169.079 177.816C169.162 177 168.919 176.088 168.293 175.551C167.831 175.158 167.472 175.011 166.921 174.733C166.798 174.69 166.723 174.664 166.689 174.65C166.715 174.655 166.789 174.678 166.912 174.718C167.205 174.854 167.228 174.813 166.981 174.601C166.967 174.136 166.051 173.154 165.842 172.675C165.113 171.03 164.887 169.291 163.81 167.793C162.327 165.729 159.836 164.949 157.514 165.649C157.273 163.166 157.21 160.574 156.275 158.358C156.249 158.298 156.165 158.272 156.128 158.338C155.152 160 155.069 161.851 154.995 163.769C154.923 165.568 154.991 167.408 155.227 169.196C155.078 169.311 154.926 169.42 154.768 169.526C154.028 170.014 153.23 170.39 152.392 170.669C150.796 171.197 149.123 171.426 147.45 171.507C143.131 171.713 138.68 171.277 134.433 170.537C130.137 169.787 123.551 168.662 119.729 166.513C117.206 165.095 114.879 163.364 112.52 161.688C113.375 158.932 113.593 155.97 112.732 153.643C112.629 153.364 112.193 153.313 112.11 153.643C111.57 155.864 111.412 158.097 110.695 160.293C110.683 160.324 110.672 160.359 110.66 160.39C110.437 160.239 110.213 160.089 109.989 159.94C109.472 159.598 108.769 159.854 108.459 160.342C103.503 168.151 95.6546 168.599 87.4128 169.994C78.393 171.521 69.3278 173.169 60.6555 176.156C52.362 179.015 44.4359 183.177 38.1569 189.394C36.7356 190.802 35.4063 192.301 34.1517 193.867C35.3655 194.02 36.5694 194.258 37.7577 194.632C39.1648 195.074 38.5601 197.29 37.1474 196.846C35.6201 196.366 34.0759 196.128 32.5159 196.01C28.2495 201.847 24.9229 208.466 22.0463 214.981C16.5287 227.473 12.9373 240.776 11.2846 254.319C12.192 253.775 13.1158 253.257 14.0625 252.775C15.378 252.106 16.5382 254.088 15.2213 254.758C13.7589 255.502 12.3384 256.322 10.962 257.211C10.3608 263.14 10.1278 269.106 10.269 275.063C10.6048 289.265 12.5217 303.883 16.8579 317.433C18.9843 324.083 21.8024 330.679 26.0008 336.299C27.9005 338.844 30.0586 341.141 32.6011 343.055C33.8323 343.985 35.1351 344.815 36.5097 345.515C38.2803 346.422 40.5876 346.72 42.1143 348.003C42.6165 348.425 43.0039 348.982 43.2966 349.611C43.1273 350.805 43.1072 352.001 43.4343 353.195C43.5376 353.569 43.8189 353.873 44.1661 354.019C44.1719 354.123 44.1719 354.223 44.1719 354.321C44.1719 354.366 44.2407 354.378 44.2493 354.332C44.2637 354.243 44.278 354.154 44.2924 354.063C44.4043 354.1 44.522 354.117 44.6425 354.117C49.0016 354.133 53.3661 354.027 57.731 353.879C57.3935 352.845 57.0279 351.82 56.6769 350.786C56.2003 349.381 58.4183 348.784 58.8906 350.175C59.3013 351.384 59.7306 352.583 60.1126 353.796C64.7893 353.622 69.4647 353.413 74.1317 353.259C84.0581 352.928 93.9816 352.819 103.91 352.61C119.33 352.283 134.861 351.614 150.304 352.269C150.838 351.135 151.436 350.027 152.003 348.909C152.672 347.589 154.652 348.753 153.985 350.068C153.591 350.845 153.183 351.612 152.796 352.388C155.923 352.55 159.048 352.765 162.166 353.058C167.486 353.557 172.755 354.444 178.07 354.995C183.473 355.558 188.76 355.457 194.12 354.565C195.085 354.404 195.653 353.821 195.888 353.098C195.896 353.095 195.902 353.09 195.908 353.081C196.183 352.759 196.442 352.493 196.709 352.26C197.027 352.053 197.372 351.878 197.776 351.723C198.531 351.436 199.317 351.261 200.115 351.143C200.993 351.011 201.883 351 202.761 350.891C203.501 350.796 204.225 350.655 204.948 350.483C206.248 350.173 207.482 349.769 208.71 349.232C209.78 348.764 210.747 348.093 211.66 347.36C213.548 345.98 215.184 344.218 216.613 342.386C217.445 341.316 218.229 340.205 218.941 339.049C220.18 337.045 221.236 334.964 222.304 332.866C222.691 332.244 223.045 331.608 223.368 330.957C221.282 330.343 219.175 329.842 216.964 329.806C215.485 329.782 215.485 327.486 216.964 327.51C219.5 327.55 221.9 328.143 224.283 328.849C224.4 328.541 224.511 328.23 224.614 327.915C224.898 327.258 225.133 326.583 225.329 325.9C225.443 325.59 225.558 325.28 225.673 324.97C225.931 323.897 226.189 322.82 226.451 321.744C226.97 320.022 227.38 318.274 227.682 316.503C227.934 315.338 228.129 314.164 228.261 312.975C228.663 310.097 228.99 307.224 229.013 304.313C228.979 302.519 228.864 300.728 228.669 298.946C228.586 297.735 228.445 296.529 228.256 295.332C228.009 293.553 227.765 291.791 227.355 290.034C227.048 288.846 226.74 287.658 226.433 286.469C225.667 283.993 224.763 281.564 223.721 279.19C223.664 279.042 223.374 278.714 223.199 278.711C223.067 278.708 222.883 278.829 222.944 278.99C222.95 279.004 222.955 279.021 222.961 279.035C222.901 278.901 222.843 278.763 222.783 278.628C222.731 278.502 222.531 278.249 222.376 278.252C222.367 278.252 222.358 278.252 222.347 278.255C222.387 278.226 222.424 278.189 222.462 278.146C223.492 276.926 224.161 275.321 224.898 273.909C225.509 272.744 226.086 271.516 226.253 270.198C226.399 269.042 226.201 267.902 225.475 266.966C224.648 265.901 223.093 265.402 223.957 263.864C224.938 262.113 226.382 260.595 224.944 258.605C224.212 257.592 223.053 257.036 222.192 256.154C221.202 255.135 220.731 253.772 220.757 252.38C220.817 252.414 220.898 252.398 220.926 252.311C221.759 249.797 221.156 247.036 220.304 244.587C219.839 243.259 218.854 242.894 217.709 242.828C222.668 233.141 227.308 223.299 231.444 213.231C231.582 212.901 231.717 212.571 231.851 212.24C232.052 211.747 231.628 211.09 231.137 210.98C227.561 210.197 223.836 209.947 220.195 209.603Z" fill="black"/>
<path fill-rule="evenodd" clip-rule="evenodd" d="M99.2409 27.2752C117.286 26.2879 133.274 21.2061 145.976 32.5793C145.976 32.5793 166.525 17.1987 169.953 23.0566C172.251 26.9818 169.065 32.2511 169.919 37.0947C175.489 46.6124 175.174 62.7222 175.489 66.4975C176.283 76.0132 181.283 111.821 181.283 120.324C181.283 124.664 177.713 136.031 175.489 142.357C170.54 156.437 161.093 163.613 145.601 163.613C130.108 163.613 104.821 150.635 96.7107 139.112C96 138.102 91.4037 141.048 86.5963 135.938C81.3882 130.401 78.499 119.841 78.499 113.546C78.499 105.558 73.3483 100.019 73.9474 89.7941C75.2854 66.9593 79.9317 28.3317 99.2409 27.2752Z" fill="#EDB98A"/>
<path fill-rule="evenodd" clip-rule="evenodd" d="M169.971 23.0013C172.269 26.9265 169.083 32.1958 169.937 37.0394C172.087 40.7122 173.36 45.3667 174.131 49.9152L169.919 52.1558L168.36 52.3849C143.089 56.1193 126.96 59.48 119.973 62.4673C112.915 65.485 104.349 76.0837 94.2755 94.2636L93.9698 94.8169L91.9737 108.385L82.8228 111.198L78.5154 113.244C78.4112 105.388 73.3726 99.8579 73.9655 89.7388C75.3035 66.904 79.9498 28.2764 99.259 27.2199C117.304 26.2326 133.292 21.1508 145.994 32.524C159.693 22.2703 167.686 19.0961 169.971 23.0013Z" fill="#DB79E2"/>
<path fill-rule="evenodd" clip-rule="evenodd" d="M97.2248 0.726536C97.4596 0.712185 97.6973 0.723666 97.935 0.746915C98.1956 0.758395 98.4562 0.78394 98.7168 0.835891C100.043 1.09105 101.225 1.79425 102.142 2.78446C102.167 2.81029 102.188 2.83928 102.21 2.86483C102.64 3.18916 103.038 3.55683 103.396 3.94689C103.459 3.88661 103.519 3.82663 103.585 3.76635C103.774 3.5996 103.972 3.44174 104.178 3.29277C105.041 2.55124 106.053 2.01218 107.142 1.70547L107.291 1.66509C107.319 1.65648 107.348 1.65074 107.376 1.645C108.15 1.38697 108.963 1.25494 109.782 1.25752C110.761 1.22595 111.744 1.38697 112.66 1.76554C113.745 2.21645 114.69 2.92797 115.484 3.78358C116.005 4.20836 116.46 4.67592 116.941 5.18997C117.935 6.25452 118.719 7.50018 119.215 8.87242C119.284 9.06472 119.344 9.26248 119.398 9.46052C120.609 9.32017 121.827 9.21971 123.044 9.17063C124.41 9.08769 125.776 9.0587 127.144 9.10491C130.916 9.22804 134.604 9.89421 138.175 11.114C138.891 11.3261 139.587 11.5959 140.257 11.9289C141.308 12.3479 142.302 12.8818 143.238 13.5276L144.036 14.0017C144.437 14.2404 144.837 14.4822 145.226 14.7302C146.151 15.3246 147.027 15.9902 147.857 16.7078C148.734 17.417 149.561 18.1891 150.349 18.9982C150.563 19.2172 150.769 19.439 150.973 19.6623C152.788 20.6442 154.4 21.9014 155.904 23.4007C157.097 22.713 158.332 22.0896 159.607 21.5354C160.921 20.9642 162.591 20.3759 163.968 19.9887C165.205 19.6414 166.428 19.4031 167.668 19.2278C168.232 19.1302 168.799 19.0527 169.369 18.9867L169.346 18.9956C169.747 18.9522 170.145 18.9149 170.549 18.8805L170.537 18.8776C170.709 18.8635 170.884 18.8489 171.056 18.8374L171.474 18.8033C171.6 18.7918 171.783 19.0871 171.795 19.1905L171.809 19.2967C171.903 19.4031 171.989 19.5208 172.05 19.5926C172.124 19.5866 172.198 19.5811 172.273 19.5779C172.496 19.5581 172.754 19.9568 172.886 20.1089L173.005 20.2492C173.14 20.4127 173.276 20.6011 173.298 20.8064C173.444 21.9978 173.582 23.1915 173.708 24.3855C173.756 25.2896 173.708 26.1851 173.559 27.072C173.447 27.9331 173.332 28.7941 173.218 29.6523C173.035 30.2553 172.854 30.8581 172.674 31.4605C172.602 31.6904 172.522 31.9169 172.445 32.1436C171.987 33.6579 171.45 35.1321 170.81 36.5606C171.277 37.0778 171.712 37.6139 172.117 38.1676C172.213 38.2672 172.311 38.3662 172.402 38.4695C172.427 38.4296 172.465 38.3923 172.505 38.3719C172.642 38.3117 172.743 38.3834 172.828 38.5014C173.73 39.365 174.386 40.3727 174.793 41.5234L175.046 42.1235C175.088 42.2239 175.13 42.3243 175.171 42.4246C175.494 43.2975 175.744 44.193 175.95 45.0997C176.134 45.8132 176.267 46.5365 176.352 47.2675C176.97 49.3493 177.46 51.4789 177.921 53.5799C177.994 53.9106 177.959 54.2056 177.854 54.4571L178.123 54.7205L178.584 55.1806C179.359 55.9543 180.148 56.7677 180.724 57.6883C181.319 58.6441 181.757 59.6659 182.244 60.6793L182.349 60.8946L182.563 61.3263C182.795 61.7976 182.906 62.0581 183.112 62.6279C183.453 63.5782 183.636 64.5337 183.722 65.5414C183.848 67.0078 183.831 68.6065 183.189 69.9699C183.186 69.9813 183.181 69.9902 183.175 69.9986C182.883 71.3163 182.161 72.5387 181.064 73.3194C180.829 73.5407 180.577 73.7387 180.308 73.8963C179.662 74.2765 179.069 74.3105 178.364 74.1346L178.275 74.1115C178.186 74.0886 178.106 74.0685 178.029 74.0513C178.143 74.146 178.201 74.2582 178.029 74.3383C177.863 74.4187 177.714 74.4646 177.574 74.4818C177.634 74.5593 177.639 74.6425 177.513 74.7114C177.238 74.8578 177.015 74.904 176.786 74.8635L176.834 75.2625C177.21 78.282 177.546 78.8792 177.84 82.1225C178.035 85.443 178.344 88.7552 178.771 92.0534L178.918 93.2518C179.389 97.0501 179.918 100.876 180.729 104.613C181.139 106.246 181.491 107.891 181.789 109.547C182.21 110.807 182.505 112.096 182.668 113.41C182.906 114.748 183.069 116.097 183.163 117.457C183.493 118.327 183.653 119.211 183.644 120.112C183.687 121.323 183.647 122.532 183.518 123.735C183.447 124.986 183.275 126.226 183.003 127.454C182.76 129.139 182.316 130.766 181.68 132.345C181.17 134.107 180.546 135.835 179.836 137.526C178.733 140.143 177.402 142.574 175.887 144.971C174.466 147.218 172.943 149.382 171.202 151.395C168.951 153.995 166.385 156.377 163.573 158.386C161.969 159.575 160.277 160.642 158.507 161.555C156.342 162.674 154.143 163.682 151.798 164.362C150.334 164.787 148.845 165.079 147.339 165.303C144.381 165.742 141.317 165.676 138.341 165.163C136.423 164.904 134.535 164.456 132.751 163.816C131.285 163.289 129.888 162.683 128.49 162C127.772 161.652 127.079 161.25 126.414 160.8C125.297 160.074 124.252 159.253 123.278 158.346C122.961 158.073 122.651 157.795 122.348 157.502C122.202 157.373 122.282 157.181 122.451 157.135L122.502 157.129C122.437 157.069 122.368 157.008 122.302 156.945C122.288 156.934 122.276 156.92 122.265 156.905C122.233 156.876 122.199 156.848 122.17 156.819C122.059 156.721 122.17 156.503 122.268 156.452C122.305 156.431 122.353 156.429 122.408 156.434C122.396 156.423 122.388 156.414 122.376 156.406C122.365 156.397 122.362 156.374 122.365 156.351L122.322 156.317C122.176 156.187 122.25 155.998 122.422 155.949C122.506 155.924 122.644 155.937 122.789 155.968L122.843 155.981L122.746 155.889C122.574 155.74 122.628 155.573 122.84 155.522C122.998 155.531 123.155 155.553 123.309 155.591L123.424 155.622C123.482 155.636 123.536 155.654 123.593 155.671C123.496 155.582 123.399 155.496 123.304 155.407C123.21 155.324 123.31 155.085 123.396 155.037C123.513 154.971 123.742 155.062 123.848 155.14C124.109 155.169 124.453 155.283 124.579 155.392C124.925 155.725 125.283 156.044 125.647 156.354C125.867 156.423 126.076 156.515 126.237 156.652C126.649 157.049 127.079 157.422 127.517 157.783L127.85 158.013C127.905 158.051 127.961 158.089 128.018 158.125C128.648 158.495 129.278 158.862 129.905 159.233C132.204 160.013 134.504 160.794 136.801 161.572L137.104 161.664L139.335 161.939C140.801 162.094 142.27 162.086 143.736 161.916C144.836 161.931 145.927 161.822 147.001 161.598C148.825 161.288 150.615 160.832 152.356 160.194C154.361 159.462 156.271 158.498 158.135 157.459C158.805 157.083 159.464 156.684 160.111 156.262C160.32 156.113 160.529 155.961 160.738 155.806C162.115 154.77 163.433 153.665 164.701 152.496C165.297 151.948 165.87 151.377 166.422 150.786C166.503 150.7 166.58 150.617 166.657 150.53C167.187 149.951 167.7 149.351 168.189 148.731L168.656 148.203C170.54 145.852 172.216 143.324 173.722 140.72C175.217 138.14 176.448 135.425 177.427 132.615C177.742 131.613 178.017 130.597 178.246 129.57C178.67 128.335 178.948 127.07 179.077 125.778C179.12 125.525 179.154 125.273 179.189 125.02L179.208 124.622C179.211 124.555 179.213 124.489 179.214 124.423C179.272 124.022 179.32 123.619 179.358 123.218C179.38 122.813 179.395 122.408 179.398 122.004L179.366 119.521C179.358 119.443 179.349 119.363 179.343 119.283L179.28 118.735C179.143 117.604 179.037 116.47 178.899 115.339C178.899 115.333 178.899 115.325 178.897 115.316C178.845 114.894 178.791 114.469 178.728 114.044C178.696 113.792 178.656 113.539 178.619 113.287L178.547 112.845C178.414 112.077 178.253 111.314 178.057 110.559L177.972 110.236L177.473 107.724L176.912 105.253C176.548 103.597 176.245 101.929 176.004 100.247C175.569 97.567 175.197 94.8831 174.873 92.188C174.856 92.0588 174.839 91.9268 174.824 91.7976C174.495 89.298 174.257 86.7892 174.103 84.272C173.894 81.7925 173.773 79.3066 173.742 76.8184C173.739 76.7062 173.814 76.6146 173.902 76.5627L173.894 76.0843C173.884 75.661 173.876 76.1688 173.873 75.6863L173.867 74.3591C173.867 74.2485 173.868 74.1716 173.871 74.1661C172.341 74.2721 171.312 74.1852 169.834 74.1072L169.584 74.0943C168.229 74.0315 166.883 73.8822 165.546 73.658C165.54 73.7272 165.495 73.7757 165.417 73.7901C165.28 73.7958 165.151 73.7958 165.019 73.799L165.068 73.9852C165.071 74.0802 165.028 74.1402 164.936 74.1661L164.554 74.1833C164.044 74.2048 163.532 74.2149 163.026 74.146C162.571 74.086 162.127 73.9795 161.686 73.8532C161.414 73.8073 161.136 73.7444 160.853 73.6638C160.125 73.4543 159.404 73.173 158.673 72.9494C157.929 72.7913 157.173 72.7399 156.382 72.929C155.546 73.1271 154.839 73.4858 153.963 73.2677C153.788 73.2249 153.619 73.1589 153.45 73.0898L153.294 73.0788C153.267 73.0765 153.24 73.0736 153.212 73.0697C152.299 72.9379 151.486 72.3581 150.615 72.0479C150.311 71.9737 150.009 71.9924 149.715 72.1156L149.641 72.1486L149.352 72.3639C149.236 72.5015 149.12 72.6404 149.007 72.7799L148.837 72.9893C148.525 73.3768 148.192 73.7241 147.789 73.9766C147.302 74.4273 146.723 74.6913 146.033 74.7085C145.641 74.72 145.251 74.6368 144.873 74.5165C143.447 74.9585 141.921 75.0475 140.498 74.617C139.933 74.5306 139.381 74.3787 138.851 74.1402C138.602 74.0283 138.353 73.8963 138.112 73.7499C137.107 74.175 136.156 74.7401 135.186 75.2283L134.967 75.3384C133.975 75.8336 132.877 76.3165 131.755 76.2444C130.34 76.1522 128.951 75.9631 127.565 75.7246C127.554 75.7246 127.54 75.7217 127.528 75.7188L127.337 75.687L126.644 75.5651L126.085 75.4608L125.799 75.5705C123.504 76.441 120.989 77.12 118.682 76.511C117.677 76.3879 116.735 76.0489 115.884 75.472C115.856 75.4519 115.827 75.4318 115.799 75.4089C115.664 75.34 115.538 75.2628 115.426 75.1795L115.402 75.1607L115.38 75.1419L115.369 75.1362C114.112 74.5567 113.39 73.3222 113.516 71.9391C113.439 71.4997 113.442 71.0691 113.528 70.6102C113.118 71.095 112.7 71.5746 112.276 72.0507C110.726 73.9217 109.208 75.83 107.802 77.8166L107.48 78.2765C106.706 79.3697 105.988 80.5009 105.323 81.6659C104.65 82.8168 103.96 83.9566 103.247 85.0817C102.32 86.1086 101.424 87.1601 100.56 88.2374L100.192 88.7007L98.9487 90.3396C98.0696 91.3846 97.3394 92.527 96.7638 93.7666C96.2913 94.648 95.856 95.5464 95.4637 96.4677C95.3377 96.7459 95.2174 97.0271 95.1 97.3084C94.6962 98.4077 94.3554 99.5273 94.0891 100.684C93.8752 101.521 93.7216 102.369 93.6304 103.23L93.6023 103.517C93.5679 103.855 93.5421 104.194 93.5278 104.533C93.6109 104.582 93.6796 104.63 93.7311 104.679L93.9402 104.754L94.1092 104.804C94.3727 104.886 94.8277 105.056 94.7191 105.265L94.1664 106.321C94.2237 106.381 94.2495 106.444 94.2122 106.513C93.8428 107.222 93.4705 107.931 93.0983 108.64C93.0868 108.666 93.0668 108.686 93.0467 108.7C93.3646 108.847 93.6739 109.007 93.9688 109.182C94.5444 109.527 94.9682 109.926 95.3606 110.391C95.7729 110.638 96.1624 110.908 96.5289 111.217C96.9814 111.694 97.3766 112.216 97.7116 112.782C98.0209 113.315 98.2729 113.872 98.4676 114.455C98.5535 114.762 98.5936 115.081 98.5908 115.405C98.2443 117.856 95.4465 116.177 95.3921 115.962C95.0083 114.481 94.5673 113.545 93.5765 112.443L93.5507 112.426C92.978 112.173 92.411 111.923 91.8182 111.728C91.7294 111.745 91.6378 111.757 91.5462 111.771C91.6493 111.918 91.5977 112.061 91.3887 112.087C90.4866 112.265 89.576 112.314 88.6596 112.236L87.2678 112.039C86.6905 112.26 86.1387 112.545 85.6187 112.885L85.4466 113L85.4151 113.023C84.072 114.105 83.0354 115.543 82.3252 117.11C82.2622 117.25 82.2017 117.39 82.1438 117.533L82.0588 117.747L82.0531 117.759C81.1253 121.413 81.9529 125.425 83.6482 128.74C84.5731 130.224 85.5382 131.679 86.5462 133.105L87.5256 134.389C88.104 134.934 88.671 135.493 89.2237 136.067C89.3096 136.154 89.4013 136.24 89.4929 136.323C89.785 136.515 90.0828 136.685 90.3864 136.828C90.5038 136.868 90.6241 136.906 90.7443 136.937C91.3285 137.218 91.9414 137.368 92.5857 137.385C93.4367 137.442 94.2626 137.342 95.0609 137.088L95.2202 137.035L95.3377 136.992C95.7729 136.713 96.1767 136.366 96.5604 135.958C96.6463 135.869 96.8067 135.869 96.99 135.918C97.0902 135.815 97.1904 135.706 97.2849 135.588C97.3508 135.516 97.4539 135.514 97.5341 135.568C97.8061 135.537 98.5421 135.956 98.3502 136.177C98.3187 136.228 98.2786 136.274 98.2443 136.323C98.3731 136.389 98.502 136.464 98.6166 136.541C99.2179 136.708 100.106 137.31 100.034 137.491L100.025 137.505C99.8863 137.769 99.7054 137.991 99.4827 138.166L99.4069 138.223L99.238 138.341C99.4756 138.49 99.6761 138.662 99.5759 138.783C99.5301 138.872 99.4814 138.958 99.4241 139.035C99.9109 139.638 100.395 140.246 100.876 140.855C101.357 141.9 101.953 142.876 102.663 143.78C103.256 144.761 103.969 145.643 104.802 146.429C104.871 146.498 104.942 146.564 105.011 146.63C105.625 147.085 106.267 147.51 106.936 147.919L107.225 148.094C107.376 148.185 107.631 148.3 107.511 148.521C107.497 148.55 107.48 148.573 107.46 148.59C107.881 148.866 108.316 149.127 108.765 149.368L108.808 149.394C108.978 149.503 109.208 149.7 108.966 149.862C108.76 149.999 108.213 149.626 107.955 149.454C107.906 149.454 107.849 149.44 107.792 149.423C107.878 149.468 107.962 149.518 108.048 149.567L108.178 149.638C108.279 149.698 108.771 150.025 108.427 150.163C108.259 150.177 108.104 150.134 107.961 150.037C107.792 149.953 107.626 149.865 107.462 149.773C107.52 149.862 107.52 149.951 107.376 150.008C107.328 150.011 107.279 150.008 107.23 150.003C107.568 150.218 107.915 150.418 108.273 150.608L108.331 150.644C108.482 150.742 108.723 150.929 108.548 151.09C108.35 151.268 107.806 150.889 107.666 150.803L107.248 150.553C107.216 150.568 107.182 150.573 107.145 150.577C107.271 150.654 107.388 150.737 107.517 150.812L107.692 150.907C107.912 151.029 108.222 151.229 108.11 151.429C107.997 151.626 107.663 151.464 107.448 151.336L107.215 151.191C107.205 151.185 107.195 151.179 107.185 151.173L107.176 151.208C107.174 151.213 107.171 151.219 107.167 151.225C107.06 151.412 106.79 151.289 106.604 151.181L106.454 151.09C106.2 150.937 105.949 150.785 105.699 150.632L105.326 150.401H105.32C104.029 149.623 102.835 148.849 101.709 147.85C101.036 147.253 100.409 146.621 99.8136 145.947C98.6165 144.595 97.7259 143.048 96.8669 141.469C96.8525 141.443 96.8726 141.377 96.9069 141.306C96.8124 141.111 96.7208 140.912 96.6292 140.709C95.7472 140.956 94.7621 141.027 93.8543 140.967C93.3675 140.935 92.8864 140.849 92.4081 140.72C90.8818 140.508 89.4099 139.81 88.1384 138.975C88.0582 138.923 87.9866 138.866 87.9122 138.815C87.3881 138.519 86.8898 138.174 86.4173 137.781C85.4952 137.017 84.6161 136.168 83.8171 135.281C83.2387 134.592 82.6917 133.877 82.1791 133.137C81.6579 132.405 81.131 131.673 80.6041 130.941C79.1408 128.645 78.2044 126.002 77.8407 123.301C77.6631 122.305 77.5715 121.297 77.5915 120.293C77.6058 119.567 77.686 118.832 77.8263 118.1C77.7433 118.02 77.6603 117.94 77.5772 117.856C77.5314 117.936 77.4856 117.994 77.4569 117.965L76.8006 117.307C76.335 116.836 76.0226 116.49 75.4867 115.729C74.6334 114.515 73.9976 113.181 73.5251 111.774C73.1843 110.77 72.9581 109.627 72.8693 108.523C72.8407 108.339 72.8121 108.152 72.7892 107.963C72.6059 106.467 72.7748 105.035 73.0011 103.56C73.0154 103.462 73.0641 103.402 73.1299 103.37C73.1465 103.253 73.1663 103.133 73.1858 103.014C71.2889 101.001 69.9238 98.5756 70.0352 95.6463C70.0701 94.7232 70.2591 93.8134 70.6199 92.9638L70.6637 92.8679C69.0804 92.624 67.8244 91.5092 66.8808 90.1275C66.7972 90.0612 66.7162 89.9943 66.6383 89.9277C64.951 88.4834 63.7812 86.4384 62.9803 84.2783C62.4067 83.0241 62.0267 81.6837 61.8654 80.2934C61.854 80.194 61.8471 80.0956 61.8382 79.9969C61.4465 77.7986 61.3468 75.5782 61.5278 73.3908C61.1346 72.037 60.8147 70.6593 60.5957 69.2494C60.4926 68.5781 60.421 67.9062 60.3666 67.2346L60.3609 67.1975L60.3523 67.0767L60.3281 66.7754C60.3243 66.7256 60.3208 66.6758 60.3179 66.6261C59.8339 60.4781 61.2056 54.4278 63.4737 48.7333C63.6713 48.2212 63.8753 47.7104 64.0858 47.2036L64.309 46.6743C66.5856 42.9947 70.0042 40.0186 72.8997 36.8754C73.8988 35.7911 72.2829 34.1631 71.28 35.2518C69.3562 37.3401 67.2924 39.3403 65.429 41.487C65.0999 41.5111 64.7703 41.52 64.4416 41.5036C63.8688 41.4746 63.3133 41.3831 62.7749 41.2364C61.4319 41.0383 60.2091 40.4959 59.098 39.698C57.6117 39.0037 56.3431 37.6946 56.2171 35.9868C56.2028 35.8146 56.2057 35.6453 56.2171 35.4762C56.0797 34.6407 56.2028 33.7656 56.5522 32.9588C56.6123 32.7378 56.6896 32.5196 56.787 32.3044C57.0705 31.6643 57.5373 31.0504 58.1072 30.6339C58.1215 30.6253 58.1329 30.6198 58.1444 30.6109C58.2045 30.5481 58.2618 30.4847 58.3277 30.4275C58.425 30.3383 58.5281 30.2553 58.6369 30.1778C58.2503 29.5404 57.901 28.8863 57.6031 28.1885C57.2796 27.4308 57.1135 26.6619 57.0218 25.8493C56.9846 25.5278 56.9703 25.2093 56.9646 24.8909C56.9474 24.7443 56.9359 24.595 56.9245 24.4458C56.8529 23.3092 56.9846 22.1298 57.4084 21.0676C57.4399 20.9875 57.48 20.9068 57.5172 20.8236C57.5974 20.5825 57.6862 20.3417 57.795 20.1061C58.2188 19.2019 58.8202 18.4356 59.5619 17.807C59.9628 17.4023 60.4124 17.0436 60.9021 16.7393C61.1913 16.5585 61.5206 16.3978 61.8671 16.2657C62.4857 15.9385 63.2789 15.64 63.9233 15.6174C64.0006 15.6142 64.0693 15.6231 64.1438 15.6231C64.2039 13.9753 64.4158 12.1815 65.0659 10.689C65.4439 9.60719 66.0109 8.64568 66.8642 7.95367C67.3592 7.43592 67.9691 7.01546 68.7301 6.74064L68.8659 6.69366L68.9175 6.67931C69.6019 6.34637 70.3407 6.21434 71.0996 6.2175C71.9845 6.17129 72.8865 6.33804 73.6569 6.74532C73.8172 6.83143 73.989 6.93763 74.1523 7.05243C74.2754 6.8056 74.4129 6.55589 74.5704 6.30647C75.123 5.4193 75.7903 4.64722 76.5635 3.94402C76.6551 3.86078 76.7553 3.78616 76.8527 3.70608C77.2278 3.36453 77.6259 3.04881 78.0383 2.76179C78.9289 2.14154 79.9054 1.67973 80.9306 1.38094C82.1142 0.942583 83.363 0.739065 84.6123 0.781886L84.871 0.792838C84.9282 0.798291 84.9855 0.801161 85.0399 0.804031C86.2799 0.884684 87.5027 1.18892 88.671 1.64787C89.8824 2.12748 90.9076 2.85335 91.8612 3.6857C92.0845 3.37601 92.3394 3.08296 92.6515 2.80742C92.7403 2.73022 92.8348 2.66104 92.9236 2.58929C92.9923 2.5204 93.0639 2.45439 93.1384 2.38838C93.4791 2.08701 93.84 1.82582 94.2351 1.59333C94.679 1.33243 95.1572 1.15161 95.6527 1.03967C96.1567 0.867176 96.6864 0.760979 97.2248 0.726536ZM91.34 119.05C91.3907 119.047 94.0429 120.044 95.3644 120.689L95.4293 120.721C96.9528 121.478 97.6859 122.024 99.0547 122.997C99.1464 123.063 99.2409 123.163 99.2409 123.261C99.2409 124.678 98.8973 126.411 97.7088 125.643C97.537 125.532 97.3639 125.424 97.1895 125.317L96.927 125.158L96.9184 125.161C96.9213 125.161 96.9241 125.158 96.927 125.155C94.3383 123.574 91.6035 122.334 88.7169 121.447C88.5193 121.375 89.9826 119.159 90.3864 119.283C90.1544 119.191 91.3014 119.052 91.34 119.05ZM118.54 56.4556C116.819 56.6401 115.097 56.8218 113.376 56.9995C112.279 57.1258 111.179 57.2377 110.08 57.3324C108.427 57.4561 106.775 57.4759 105.129 57.2492C104.544 57.1691 103.972 57.054 103.405 56.9134C103.018 57.1975 102.617 57.4644 102.208 57.7202L97.6601 61.2072C94.6103 63.6098 91.6263 66.1554 88.9402 68.9653C84.249 73.8745 80.428 79.6177 78.0257 85.9795C77.8077 86.1084 77.6393 86.3331 77.5832 86.6778C77.1588 89.2854 75.9177 91.6636 75.4693 94.2606C75.0277 96.8185 75.615 98.9929 77.2181 101.02C77.5603 101.454 78.2613 101.431 78.6915 101.138C78.7914 101.335 79.2244 101.327 79.3764 100.457C80.0892 99.6835 80.6989 98.8727 81.1118 97.8687C81.4159 97.1293 80.9048 96.6167 80.2845 96.516C80.5422 95.586 80.8329 94.6644 81.1597 93.7525C82.1276 91.0428 83.3589 88.4542 84.9082 86.026C86.2713 83.8903 87.8492 82.0304 89.5445 80.1648C89.5645 80.1389 89.5989 80.1306 89.6361 80.1249L89.9883 79.7342C90.037 79.6797 90.1372 79.6855 90.2489 79.7142C90.3549 79.6022 90.458 79.4874 90.5668 79.3755C90.6727 79.2607 90.7902 79.2951 90.856 79.387C91.0364 79.3468 91.3658 79.5419 91.466 79.6054C91.6378 79.7199 91.6922 79.849 91.5462 80.0127C91.5204 80.0416 91.4946 80.0703 91.4688 80.0959C91.6664 80.1794 91.8612 80.2911 92.0129 80.4004C92.5427 80.5178 93.2873 81.0115 93.1584 81.1581C92.8864 81.442 92.6229 81.7322 92.3623 82.0275C92.5914 82.1885 92.7403 82.3461 92.6802 82.4153C91.5633 83.5946 90.5324 84.8435 89.5874 86.1663C88.8686 87.1537 88.2186 88.1812 87.6373 89.2518C86.7724 90.7673 86.0393 92.3258 85.3893 93.9273C85.2976 94.1716 85.2089 94.4153 85.123 94.6592C84.1722 97.3256 83.462 100.092 83.1614 102.911L83.1488 103.101C83.0928 104.116 83.0709 106.835 82.9666 107.483C83.5995 107.796 84.2581 108.063 84.9426 108.281C85.0714 108.319 85.2031 108.353 85.3349 108.385C85.4093 108.353 85.4866 108.327 85.564 108.304C86.194 108.049 86.8526 107.865 87.5256 107.776C87.9791 107.716 88.4305 107.695 88.8815 107.708L89.0748 107.716C89.2753 107.721 89.4729 107.736 89.6733 107.756C89.6619 107.641 89.6561 107.529 89.6476 107.414C89.5903 107.377 89.5473 107.326 89.5445 107.256C89.4099 105.965 89.407 104.673 89.5359 103.382C89.6218 102.707 89.722 102.036 89.8308 101.364C89.9425 100.813 90.0714 100.271 90.2117 99.728C90.584 98.2071 91.0794 96.7229 91.6808 95.2709C93.3932 91.1289 95.8474 87.3948 98.3159 83.6808C100.117 80.9687 101.821 78.1958 103.685 75.5294C105.272 73.2591 106.938 71.0232 108.717 68.8993C110.492 66.7785 112.368 64.7375 114.392 62.8492C114.719 62.5475 115.048 62.2548 115.383 61.9652C117.302 60.2431 119.387 58.8278 121.557 57.4389C121.64 57.3844 121.789 57.4446 121.912 57.5477L122.263 57.3319C122.321 57.2961 122.38 57.2607 122.439 57.2262C122.494 57.1921 122.554 57.2492 122.585 57.298C122.734 57.2205 122.883 57.1461 123.032 57.0712C123.141 56.9834 123.253 56.9002 123.362 56.8135C121.752 56.7323 120.145 56.6117 118.54 56.4556ZM138.728 37.3215C137.428 37.0606 136.122 37.023 134.81 37.2181C134.261 37.2988 133.714 37.3958 133.172 37.5132C134.403 38.5895 135.394 39.9669 136.037 41.5521C136.731 43.2656 133.96 44.0041 133.275 42.3153C132.615 40.6862 131.364 39.4365 129.853 38.6874C129.527 38.8702 129.211 39.0683 128.908 39.2875C128.513 39.609 128.141 39.9563 127.792 40.338C127.03 41.1678 126.331 42.2754 125.873 43.3718C125.695 43.9688 125.564 44.583 125.481 45.2145C125.463 45.358 125.446 45.5044 125.432 45.6507C125.15 48.6211 125.997 51.5111 127.455 54.0684L127.512 54.0693C128.813 53.3621 130.176 52.7662 131.577 52.2809C132.7 51.5234 133.865 50.8228 135.065 50.1885C137.616 48.8397 140.31 47.8 143.086 47.0889L143.407 47.0083C144.061 46.8409 144.721 46.6934 145.383 46.5644L145.781 46.4891H145.787L145.744 46.0612C145.521 44.3821 144.865 42.8236 144.017 41.3831C143.381 40.2953 142.422 39.1816 141.357 38.2919L141.351 38.2887C140.867 38.0132 140.359 37.7853 139.835 37.5969L139.639 37.5281L138.728 37.3215ZM103.82 34.7701C101.117 34.5144 98.4132 34.5402 95.7099 34.7612C93.9431 34.9366 92.1876 35.1803 90.4408 35.4903C89.2581 35.6941 88.0983 35.9811 86.9586 36.3373L87.6105 37.6586C88.7 39.8592 89.816 42.0453 91.1309 44.1238C91.8096 45.1944 92.5456 46.2136 93.3474 47.192C93.8886 47.8924 94.4843 48.5413 95.1372 49.138C95.309 49.3478 95.4923 49.5459 95.6784 49.7379C96.2741 50.2488 96.9155 50.6965 97.6171 51.0668C98.1797 51.4775 98.7671 51.8364 99.3795 52.1509L99.6102 52.2668L101.758 53.0931C101.873 53.1257 101.988 53.1582 102.105 53.1891L102.279 53.2341L102.606 53.3027L102.851 53.1694C102.892 53.1474 102.933 53.1257 102.975 53.1046C103.044 53.0676 103.092 53.1394 103.107 53.1907C103.113 53.2111 103.104 53.2395 103.09 53.2682L103.403 53.0986C103.941 53.3176 104.512 53.4927 105.124 53.6081C105.401 53.66 105.679 53.6999 105.957 53.7341L105.995 53.759C106.001 53.7634 106.007 53.7681 106.013 53.7737H106.318C108.458 53.9806 110.63 53.7071 112.767 53.3222C115.792 53.0174 118.816 52.6813 121.838 52.367C121.895 52.3615 121.918 52.3871 121.918 52.4275L122.104 52.4103C122.374 52.3813 122.689 52.832 122.485 52.9958C122.648 53.0931 122.806 53.2341 122.923 53.3431L122.992 53.3371C122.577 52.522 122.256 51.6695 122.027 50.7829L121.735 49.2959C121.655 48.7419 121.609 48.151 121.6 47.568C121.58 47.3011 121.566 47.0517 121.566 46.8333C121.566 46.6266 121.569 46.42 121.577 46.2136C121.008 45.9779 120.429 45.7716 119.839 45.5962C118.164 45.3898 116.492 45.1829 114.816 44.9791C113.811 45.0164 112.806 45.0882 111.804 45.2001C110.667 45.3006 109.533 45.4297 108.402 45.5847C108.296 45.5962 108.107 45.4527 107.992 45.2862L107.508 45.3525C107.256 45.3841 106.993 44.8787 107.325 44.7753C107.445 44.7275 107.566 44.6822 107.686 44.6386L107.866 44.5744L107.763 44.5859C107.729 44.5891 107.686 44.5802 107.637 44.5632C107.371 44.5974 107.104 44.6318 106.841 44.6634C106.507 44.7052 106.583 44.2637 106.817 44.1597L106.93 44.1181C106.732 43.9943 106.558 43.6558 106.802 43.5452L106.835 43.5325C106.95 43.4869 107.061 43.4493 107.176 43.4063C107.167 43.3692 107.167 43.3345 107.179 43.3032L106.706 43.3632C106.663 43.3689 106.869 43.0667 106.967 43.0069L106.984 42.9987L107.21 42.9298C107.245 42.8322 107.428 42.617 107.491 42.5971C108.322 42.3357 109.095 42.1006 109.902 41.9195C109.942 41.8707 109.988 41.8334 110.04 41.8219C110.544 41.7014 111.053 41.6066 111.563 41.5266C111.598 41.4746 111.632 41.4376 111.672 41.4344C112.935 41.2737 114.201 41.2364 115.472 41.3228C115.715 41.3455 115.959 41.3716 116.202 41.4029C116.669 41.4548 117.136 41.5208 117.6 41.6098C118.762 41.8097 119.897 42.1135 121.002 42.5234L121.257 42.6198C121.534 42.7234 121.809 42.8322 122.081 42.9502C122.219 42.4594 122.391 41.9769 122.594 41.5036C122.626 41.4115 122.66 41.3228 122.697 41.2338L122.419 41.067C122.359 41.1819 122.236 41.2708 122.156 41.2223C120.166 39.8762 118.061 38.7537 115.841 37.8582C114.599 37.3071 113.327 36.8395 112.024 36.4489C111.374 36.2397 110.718 36.0502 110.06 35.8694C109.73 35.8003 109.401 35.7314 109.066 35.674C107.345 35.209 105.595 34.9079 103.82 34.7701ZM169.401 39.326C169.16 39.7445 168.908 40.1589 168.642 40.5676C167.347 42.5535 165.795 44.4171 164.035 46.042C164.494 46.0408 164.952 46.0583 165.404 46.1008C166.184 46.1746 166.948 46.3043 167.692 46.486C167.753 46.4375 167.82 46.4131 167.874 46.4515L168.068 46.5861C169.665 47.0181 171.165 47.6972 172.523 48.607L172.499 48.4274C172.495 48.3974 172.49 48.3675 172.485 48.3375C172.508 47.9845 172.513 47.6312 172.502 47.281C172.221 45.2116 171.52 43.3058 170.718 41.3773C170.703 41.34 170.714 41.2915 170.737 41.2421C170.332 40.5797 169.889 39.9391 169.401 39.326ZM169.77 23.0566C169.172 23.1657 168.579 23.3063 167.989 23.4814C166.881 23.6482 165.807 23.9409 164.77 24.3568C163.341 24.8648 161.955 25.4561 160.575 26.0821C157.894 27.2987 155.38 28.8375 153.092 30.6916C152.946 30.8033 152.806 30.9183 152.665 31.0332C152.153 31.4777 151.654 31.9427 151.182 32.4335C150.687 32.9731 150.188 33.513 149.693 34.0552C149.086 34.6926 148.387 35.2693 147.837 35.9581C147.726 36.0988 147.628 36.2537 147.539 36.409L147.863 36.5207C148.135 36.6125 148.089 37.1234 147.82 37.0488C147.728 37.023 147.642 36.9914 147.557 36.9572C147.594 37.006 147.62 37.0548 147.625 37.0976C147.642 37.2353 147.537 37.4251 147.368 37.3763C147.29 37.3559 147.213 37.3272 147.136 37.2956C147.113 37.3846 147.096 37.4736 147.096 37.5597C147.11 37.5654 147.124 37.5712 147.141 37.5743C147.33 37.6403 147.685 37.9357 147.737 38.1369C147.777 38.2919 147.645 38.458 147.476 38.4121C147.35 38.3777 147.227 38.326 147.107 38.2686C147.187 38.3464 147.25 38.4296 147.256 38.5014C147.267 38.6334 147.153 38.8197 146.995 38.7769C146.703 38.6963 146.468 38.5731 146.274 38.4181C146.222 38.4867 146.148 38.5413 146.088 38.5243L145.976 38.4899C146.006 38.5184 146.034 38.5485 146.062 38.578L146.102 38.6216C146.892 39.477 147.582 40.4241 148.135 41.4433C148.161 41.4143 148.192 41.3885 148.232 41.3569C148.49 41.1388 148.756 40.9264 149.023 40.72L149.103 40.6495L149.186 40.5791L148.587 40.7772L148.601 40.7616C148.643 40.7074 148.775 40.5264 148.836 40.4661L148.851 40.4528C149.673 39.7155 150.569 39.0895 151.537 38.5789C152.164 38.171 152.823 37.8266 153.513 37.5425C155.16 36.7761 156.838 36.1938 158.562 35.6542C158.819 35.5709 159.077 35.4819 159.335 35.4013C159.409 35.3755 159.424 35.407 159.412 35.4587L159.547 35.4185C159.787 35.341 160.197 35.7658 160.034 35.9639C160.132 36.0442 160.229 36.1338 160.313 36.2178L160.374 36.2796L160.443 36.2595C160.648 36.1962 160.993 36.5159 161.212 36.7423L161.374 36.9139C161.497 37.0459 161.737 37.3186 161.442 37.4251L161.073 37.5511C161.085 37.6257 161.053 37.6888 160.938 37.7319C160.81 37.7749 160.684 37.8209 160.558 37.8671C160.634 37.9339 160.709 38.0033 160.783 38.0737L160.893 38.1796C161.022 38.3123 161.33 38.6047 161.058 38.7338L161.024 38.7479L160.672 38.8742C160.718 38.9776 160.707 39.0754 160.552 39.1325C158.496 39.8329 156.488 40.654 154.527 41.5868C153.058 42.4017 151.506 43.0105 149.87 43.4091C149.736 43.4525 149.444 43.2487 149.323 43.0449L149.079 43.1169C149.039 43.1288 148.998 43.1403 148.957 43.1508L148.917 43.1597C149.223 43.9777 149.449 44.8643 149.575 45.7225C149.59 45.8 149.601 45.8806 149.61 45.9581C149.931 45.932 150.248 45.9091 150.569 45.8921C152.788 45.7742 155.034 45.8459 157.259 46.11C158.158 45.5732 159.023 44.9849 159.85 44.348C160.102 44.1525 160.351 43.9516 160.598 43.7478C162.075 42.462 163.413 41.0185 164.598 39.4597C165.695 38.016 166.649 36.4661 167.45 34.8419C168.161 33.3175 168.748 31.7332 169.192 30.0972C169.598 28.6018 169.739 27.1466 169.842 25.5996C169.876 25.347 169.899 25.0947 169.919 24.8419L169.917 24.7337L169.913 24.6811C169.885 24.139 169.83 23.5962 169.77 23.0566ZM148.788 42.2783C148.722 42.3012 148.653 42.3242 148.585 42.3443C148.625 42.4333 148.662 42.5197 148.699 42.6083L148.703 42.6066L148.974 42.3931C148.917 42.3672 148.851 42.3273 148.788 42.2783ZM169.369 18.9868C169.885 18.7945 170.274 18.7572 170.537 18.8777C170.148 18.9064 169.759 18.9437 169.369 18.9868Z" fill="black"/>
<path fill-rule="evenodd" clip-rule="evenodd" d="M161.329 131.985C162.314 130.247 165.252 130.529 165.701 132.556C166.612 136.664 161.714 140.458 157.993 140.553C154.296 140.647 150.148 137.5 150.683 133.524C150.816 132.541 152.129 132.661 152.576 133.277L152.75 133.514C153.966 135.147 155.571 136.838 157.827 136.44C158.762 136.275 159.612 135.691 160.177 134.939C160.859 134.031 160.784 132.947 161.329 131.985ZM137.821 101.928C138.322 101.79 138.827 101.843 139.271 102.032C140.263 102.214 141.09 103.04 141.381 103.984C141.404 104.066 141.43 104.146 141.458 104.226L141.503 104.345L141.384 104.043C141.439 104.341 141.681 104.654 141.768 104.953C141.876 105.321 141.902 105.738 141.866 106.143C142.181 106.146 142.496 106.157 142.81 106.184L143.114 106.211C144.814 106.369 146.68 106.659 147.688 108.128C148.254 108.953 147.722 110.44 146.683 110.599C145.082 110.843 143.704 109.958 142.109 109.78C140.601 109.612 139.023 109.709 137.535 109.981C134.462 110.543 131.639 111.788 128.645 112.57L128.237 112.674L128.238 112.672C127.724 112.796 127.142 112.082 127.65 111.665C130.048 109.694 133.12 108.096 136.145 107.124C135.704 106.423 135.568 105.499 135.869 104.746C135.916 104.59 135.974 104.438 136.035 104.287L136.162 103.976C136.175 103.829 136.203 103.684 136.244 103.542L136.25 103.499L136.254 103.502C136.479 102.769 137.067 102.136 137.821 101.928ZM168.425 102.041C169.081 101.385 170.003 101.482 170.687 101.998L170.778 102.07C171.424 102.356 171.958 102.983 172.308 103.563C172.673 104.167 172.914 104.781 172.924 105.445C174.512 105.45 176.033 105.926 177.199 107.209C177.576 107.623 177.833 108.261 177.626 108.822L177.502 109.156C177.111 110.216 175.351 110.826 174.752 109.579L174.725 109.519C174.089 108.039 171.649 108.194 170.352 108.345C169.448 108.451 168.555 108.676 167.682 108.928C167.375 109.016 167.07 109.113 166.766 109.211L166.461 109.31C166.299 109.362 165.453 109.822 165.979 109.713C166.12 109.684 166.227 109.89 166.083 109.959C165.455 110.259 164.786 109.661 164.828 108.988C164.9 107.818 166.758 107.176 167.652 106.773L167.705 106.749C168.048 106.59 168.407 106.438 168.777 106.297C168.569 105.987 168.397 105.643 168.253 105.273C168.118 104.924 168.028 104.585 167.978 104.214C167.929 104.032 167.929 103.851 167.978 103.669L167.985 103.617C167.96 103.497 167.948 103.373 167.95 103.249L167.945 103.2H167.95C167.967 102.763 168.141 102.325 168.425 102.041ZM157.942 114.499C160.463 115.278 164.621 117.4 163.307 120.675C161.473 123.683 156.61 121.473 154.253 120.501C152.135 119.799 151.033 122.767 153.08 123.662C170 130.357 169.937 112.688 158.556 112.948C157.303 112.976 157.263 114.24 157.942 114.499ZM135.557 91.4609L135.987 91.3354C138.221 90.6882 140.502 89.5706 142.485 91.3145C143.264 91.9993 143.424 93.4224 142.867 94.2765C141.598 96.2228 139.715 95.9255 137.664 96.0913C136.103 96.2176 134.565 96.6763 133.108 97.2495C131.917 97.7182 130.813 98.378 129.77 99.1139C128.745 99.8375 128.045 100.969 126.994 101.62C126.609 101.859 126.165 101.613 126.026 101.226C125.536 99.8524 126.364 98.1415 127.065 96.9713C127.92 95.5437 129.22 94.3761 130.617 93.4927C132.147 92.5251 133.839 91.9665 135.557 91.4609ZM168.11 89.9832C171.887 89.982 175.52 92.0827 177.632 95.1621C178.35 96.2083 177.824 97.7582 176.794 98.3607C175.638 99.0368 174.402 98.5499 173.641 97.581L173.596 97.5223C172.384 95.9089 170.823 94.6383 168.972 93.8111C168.069 93.4073 167.07 93.0798 166.093 92.9136L165.778 92.8595C165.335 92.7854 164.822 92.7145 164.422 92.7839C164.207 92.812 164.01 92.8829 163.829 92.9908C163.916 93.1814 163.691 93.411 163.483 93.2968C162.545 92.7813 162.66 91.8617 163.435 91.147C164.531 90.1358 166.694 89.9834 168.11 89.9832Z" fill="black"/>
</svg>
